<svg viewBox="0 0 1285.666748046875 400" xmlns="http://www.w3.org/2000/svg"><g><g><g><g><g><line x1="50" y1="377" x2="45" y2="377" style="visibility: inherit;" fill="rgb(0, 0, 0)" stroke="rgb(204, 204, 204)" stroke-width="1px"></line><line x1="50" y1="350.07142857142856" x2="45" y2="350.07142857142856" style="visibility: inherit;" fill="rgb(0, 0, 0)" stroke="rgb(204, 204, 204)" stroke-width="1px"></line><line x1="50" y1="323.14285714285717" x2="45" y2="323.14285714285717" style="visibility: inherit;" fill="rgb(0, 0, 0)" stroke="rgb(204, 204, 204)" stroke-width="1px"></line><line x1="50" y1="296.2142857142857" x2="45" y2="296.2142857142857" style="visibility: inherit;" fill="rgb(0, 0, 0)" stroke="rgb(204, 204, 204)" stroke-width="1px"></line><line x1="50" y1="269.28571428571433" x2="45" y2="269.28571428571433" style="visibility: inherit;" fill="rgb(0, 0, 0)" stroke="rgb(204, 204, 204)" stroke-width="1px"></line><line x1="50" y1="242.35714285714286" x2="45" y2="242.35714285714286" style="visibility: inherit;" fill="rgb(0, 0, 0)" stroke="rgb(204, 204, 204)" stroke-width="1px"></line><line x1="50" y1="215.42857142857142" x2="45" y2="215.42857142857142" style="visibility: inherit;" fill="rgb(0, 0, 0)" stroke="rgb(204, 204, 204)" stroke-width="1px"></line><line x1="50" y1="188.5" x2="45" y2="188.5" style="visibility: inherit;" fill="rgb(0, 0, 0)" stroke="rgb(204, 204, 204)" stroke-width="1px"></line><line x1="50" y1="161.57142857142858" x2="45" y2="161.57142857142858" style="visibility: inherit;" fill="rgb(0, 0, 0)" stroke="rgb(204, 204, 204)" stroke-width="1px"></line><line x1="50" y1="134.64285714285714" x2="45" y2="134.64285714285714" style="visibility: inherit;" fill="rgb(0, 0, 0)" stroke="rgb(204, 204, 204)" stroke-width="1px"></line><line x1="50" y1="107.71428571428575" x2="45" y2="107.71428571428575" style="visibility: inherit;" fill="rgb(0, 0, 0)" stroke="rgb(204, 204, 204)" stroke-width="1px"></line><line x1="50" y1="80.78571428571429" x2="45" y2="80.78571428571429" style="visibility: inherit;" fill="rgb(0, 0, 0)" stroke="rgb(204, 204, 204)" stroke-width="1px"></line><line x1="50" y1="53.85714285714292" x2="45" y2="53.85714285714292" style="visibility: inherit;" fill="rgb(0, 0, 0)" stroke="rgb(204, 204, 204)" stroke-width="1px"></line><line x1="50" y1="26.92857142857146" x2="45" y2="26.92857142857146" style="visibility: inherit;" fill="rgb(0, 0, 0)" stroke="rgb(204, 204, 204)" stroke-width="1px"></line><line x1="50" y1="0" x2="45" y2="0" style="visibility: inherit;" fill="rgb(0, 0, 0)" stroke="rgb(204, 204, 204)" stroke-width="1px"></line></g><g transform="translate(40, 0)"><text x="0" y="377" dx="0em" dy="0.3em" style="text-anchor: end; visibility: hidden; font-family: Roboto, sans-serif; font-size: 12px; font-weight: 200;" fill="rgb(255, 255, 255)" stroke="none" stroke-width="1px">0.1</text><text x="0" y="350.07142857142856" dx="0em" dy="0.3em" style="text-anchor: end; visibility: inherit; font-family: Roboto, sans-serif; font-size: 12px; font-weight: 200;" fill="rgb(255, 255, 255)" stroke="none" stroke-width="1px">0.15</text><text x="0" y="323.14285714285717" dx="0em" dy="0.3em" style="text-anchor: end; visibility: inherit; font-family: Roboto, sans-serif; font-size: 12px; font-weight: 200;" fill="rgb(255, 255, 255)" stroke="none" stroke-width="1px">0.2</text><text x="0" y="296.2142857142857" dx="0em" dy="0.3em" style="text-anchor: end; visibility: inherit; font-family: Roboto, sans-serif; font-size: 12px; font-weight: 200;" fill="rgb(255, 255, 255)" stroke="none" stroke-width="1px">0.25</text><text x="0" y="269.28571428571433" dx="0em" dy="0.3em" style="text-anchor: end; visibility: inherit; font-family: Roboto, sans-serif; font-size: 12px; font-weight: 200;" fill="rgb(255, 255, 255)" stroke="none" stroke-width="1px">0.3</text><text x="0" y="242.35714285714286" dx="0em" dy="0.3em" style="text-anchor: end; visibility: inherit; font-family: Roboto, sans-serif; font-size: 12px; font-weight: 200;" fill="rgb(255, 255, 255)" stroke="none" stroke-width="1px">0.35</text><text x="0" y="215.42857142857142" dx="0em" dy="0.3em" style="text-anchor: end; visibility: inherit; font-family: Roboto, sans-serif; font-size: 12px; font-weight: 200;" fill="rgb(255, 255, 255)" stroke="none" stroke-width="1px">0.4</text><text x="0" y="188.5" dx="0em" dy="0.3em" style="text-anchor: end; visibility: inherit; font-family: Roboto, sans-serif; font-size: 12px; font-weight: 200;" fill="rgb(255, 255, 255)" stroke="none" stroke-width="1px">0.45</text><text x="0" y="161.57142857142858" dx="0em" dy="0.3em" style="text-anchor: end; visibility: inherit; font-family: Roboto, sans-serif; font-size: 12px; font-weight: 200;" fill="rgb(255, 255, 255)" stroke="none" stroke-width="1px">0.5</text><text x="0" y="134.64285714285714" dx="0em" dy="0.3em" style="text-anchor: end; visibility: inherit; font-family: Roboto, sans-serif; font-size: 12px; font-weight: 200;" fill="rgb(255, 255, 255)" stroke="none" stroke-width="1px">0.55</text><text x="0" y="107.71428571428575" dx="0em" dy="0.3em" style="text-anchor: end; visibility: inherit; font-family: Roboto, sans-serif; font-size: 12px; font-weight: 200;" fill="rgb(255, 255, 255)" stroke="none" stroke-width="1px">0.6</text><text x="0" y="80.78571428571429" dx="0em" dy="0.3em" style="text-anchor: end; visibility: inherit; font-family: Roboto, sans-serif; font-size: 12px; font-weight: 200;" fill="rgb(255, 255, 255)" stroke="none" stroke-width="1px">0.65</text><text x="0" y="53.85714285714292" dx="0em" dy="0.3em" style="text-anchor: end; visibility: inherit; font-family: Roboto, sans-serif; font-size: 12px; font-weight: 200;" fill="rgb(255, 255, 255)" stroke="none" stroke-width="1px">0.7</text><text x="0" y="26.92857142857146" dx="0em" dy="0.3em" style="text-anchor: end; visibility: inherit; font-family: Roboto, sans-serif; font-size: 12px; font-weight: 200;" fill="rgb(255, 255, 255)" stroke="none" stroke-width="1px">0.75</text><text x="0" y="0" dx="0em" dy="0.3em" style="text-anchor: end; visibility: hidden; font-family: Roboto, sans-serif; font-size: 12px; font-weight: 200;" fill="rgb(255, 255, 255)" stroke="none" stroke-width="1px">0.8</text></g><line x1="50" y1="0" x2="50" y2="377" fill="rgb(0, 0, 0)" stroke="rgb(204, 204, 204)" stroke-width="1px"></line></g></g><g transform="translate(50, 0)" clip-path="url(#clip_0)"><clipPath id="clip_0"><rect width="1261" height="377"></rect></clipPath><g><g><g><line x1="0" y1="0" x2="0" y2="377" fill="rgb(0, 0, 0)" stroke="rgb(189, 189, 189)" stroke-width="1px" opacity="0.25"></line><line x1="157.625" y1="0" x2="157.625" y2="377" fill="rgb(0, 0, 0)" stroke="rgb(189, 189, 189)" stroke-width="1px" opacity="0.25"></line><line x1="315.25" y1="0" x2="315.25" y2="377" fill="rgb(0, 0, 0)" stroke="rgb(189, 189, 189)" stroke-width="1px" opacity="0.25"></line><line x1="472.875" y1="0" x2="472.875" y2="377" fill="rgb(0, 0, 0)" stroke="rgb(189, 189, 189)" stroke-width="1px" opacity="0.25"></line><line x1="630.5" y1="0" x2="630.5" y2="377" fill="rgb(0, 0, 0)" stroke="rgb(189, 189, 189)" stroke-width="1px" opacity="0.25"></line><line x1="788.125" y1="0" x2="788.125" y2="377" fill="rgb(0, 0, 0)" stroke="rgb(189, 189, 189)" stroke-width="1px" opacity="0.25"></line><line x1="945.75" y1="0" x2="945.75" y2="377" fill="rgb(0, 0, 0)" stroke="rgb(189, 189, 189)" stroke-width="1px" opacity="0.25"></line><line x1="1103.375" y1="0" x2="1103.375" y2="377" fill="rgb(0, 0, 0)" stroke="rgb(189, 189, 189)" stroke-width="1px" opacity="0.25"></line><line x1="1261" y1="0" x2="1261" y2="377" fill="rgb(0, 0, 0)" stroke="rgb(189, 189, 189)" stroke-width="1px" opacity="0.25"></line></g><g><line x1="0" y1="377" x2="1261" y2="377" fill="rgb(0, 0, 0)" stroke="rgb(189, 189, 189)" stroke-width="1px" opacity="0.25"></line><line x1="0" y1="350.07142857142856" x2="1261" y2="350.07142857142856" fill="rgb(0, 0, 0)" stroke="rgb(189, 189, 189)" stroke-width="1px" opacity="0.25"></line><line x1="0" y1="323.14285714285717" x2="1261" y2="323.14285714285717" fill="rgb(0, 0, 0)" stroke="rgb(189, 189, 189)" stroke-width="1px" opacity="0.25"></line><line x1="0" y1="296.2142857142857" x2="1261" y2="296.2142857142857" fill="rgb(0, 0, 0)" stroke="rgb(189, 189, 189)" stroke-width="1px" opacity="0.25"></line><line x1="0" y1="269.28571428571433" x2="1261" y2="269.28571428571433" fill="rgb(0, 0, 0)" stroke="rgb(189, 189, 189)" stroke-width="1px" opacity="0.25"></line><line x1="0" y1="242.35714285714286" x2="1261" y2="242.35714285714286" fill="rgb(0, 0, 0)" stroke="rgb(189, 189, 189)" stroke-width="1px" opacity="0.25"></line><line x1="0" y1="215.42857142857142" x2="1261" y2="215.42857142857142" fill="rgb(0, 0, 0)" stroke="rgb(189, 189, 189)" stroke-width="1px" opacity="0.25"></line><line x1="0" y1="188.5" x2="1261" y2="188.5" fill="rgb(0, 0, 0)" stroke="rgb(189, 189, 189)" stroke-width="1px" opacity="0.25"></line><line x1="0" y1="161.57142857142858" x2="1261" y2="161.57142857142858" fill="rgb(0, 0, 0)" stroke="rgb(189, 189, 189)" stroke-width="1px" opacity="0.25"></line><line x1="0" y1="134.64285714285714" x2="1261" y2="134.64285714285714" fill="rgb(0, 0, 0)" stroke="rgb(189, 189, 189)" stroke-width="1px" opacity="0.25"></line><line x1="0" y1="107.71428571428575" x2="1261" y2="107.71428571428575" fill="rgb(0, 0, 0)" stroke="rgb(189, 189, 189)" stroke-width="1px" opacity="0.25"></line><line x1="0" y1="80.78571428571429" x2="1261" y2="80.78571428571429" fill="rgb(0, 0, 0)" stroke="rgb(189, 189, 189)" stroke-width="1px" opacity="0.25"></line><line x1="0" y1="53.85714285714292" x2="1261" y2="53.85714285714292" fill="rgb(0, 0, 0)" stroke="rgb(189, 189, 189)" stroke-width="1px" opacity="0.25"></line><line x1="0" y1="26.92857142857146" x2="1261" y2="26.92857142857146" fill="rgb(0, 0, 0)" stroke="rgb(189, 189, 189)" stroke-width="1px" opacity="0.25"></line><line x1="0" y1="0" x2="1261" y2="0" fill="rgb(0, 0, 0)" stroke="rgb(189, 189, 189)" stroke-width="1px" opacity="0.25"></line></g></g></g><g><g><line x1="0" y1="430.85714285714283" x2="1261" y2="430.85714285714283" fill="rgb(0, 0, 0)" stroke="rgb(153, 153, 153)" stroke-width="1.5px"></line></g></g><g><g><line x1="157.625" y1="0" x2="157.625" y2="377" fill="rgb(0, 0, 0)" stroke="rgb(153, 153, 153)" stroke-width="1.5px"></line></g></g><g><g><g><g><g><path stroke="rgb(0, 153, 136)" stroke-width="2px" d="M160.7775,37.69745372022909L163.93,43.020059623888585L167.0825,46.00043738791967L170.235,48.63522751497873L173.38750000000002,43.24488093808793L176.54000000000002,49.509818863800994L179.6925,54.28957562754717L182.845,57.3457925380402L185.9975,60.99759408664816L189.15,64.27941953684957L192.3025,68.4353080621689L195.455,72.14648330965505L198.6075,76.47494316555745L201.76,81.14869405521925L204.9125,79.21388417800182L208.065,87.10695868833899L211.2175,94.6147500125087L214.37,103.29804209944946L217.52249999999998,109.87559346920207L220.67499999999998,108.15944332370982L223.8275,117.94043273564712L226.98,122.33924383388869L230.1325,122.5080432473088L233.285,130.73619187757268L236.4375,135.98848495049583L239.59,143.78587596486028L242.7425,141.15753740484993L245.895,144.68746723675517L249.0475,153.17056053739554L252.20000000000002,161.18084268973953L255.35250000000002,165.81915924122967L258.505,157.7877908413155L261.65749999999997,169.89922758998978L264.81,179.7091718175781L267.9625,176.91331914805434L271.115,185.15488996338345L274.2675,188.58213151227542L277.42,182.53265219989612L280.5725,190.1848523365295L283.725,187.58263671244327L286.8775,192.58107874702063L290.03000000000003,192.62306310568394L293.1825,197.03684972893825L296.335,210.3825335306071L299.4875,212.36606606959626L302.64,201.83603089797845L305.7925,189.4271750413462L308.945,193.0913970176769L312.0975,196.75149222388052L315.25,207.2507326988824L318.4025,207.69801952770254L321.555,204.94856215571247L324.7075,214.57068274992187L327.86,213.62890943292317L331.0125,223.31322502649843L334.165,227.7274117000623L337.3175,221.75088571049406L340.47,219.57910558986924L343.6225,219.25764570394398L346.77500000000003,226.0509884632614L349.9275,225.74901082123102L353.08000000000004,229.44509054084642L356.23249999999996,225.2275523441349L359.385,222.66674500432362L362.53749999999997,231.4257762569081L365.69,234.05401339331047L368.8425,232.45634317005656L371.995,238.5897080227604L375.1475,243.79161382806376L378.3,234.13396401034464L381.4525,233.61284407869982L384.605,233.06489484163012L387.7575,232.62585713230132L390.91,236.00673483128034L394.0625,238.04019863963362L397.215,241.62623052334928L400.3675,244.67131392934752L403.52,238.48518429607307L406.6725,244.04944449907632L409.825,230.80349494365507L412.9775,234.53311544608525L416.13,225.62842910431127L419.2825,230.76384104881643L422.435,234.33715710227634L425.58750000000003,232.42829883804882L428.74,228.0481749066087L431.89250000000004,234.70023096815692L435.04499999999996,231.2557498493464L438.1975,234.31222615540622L441.34999999999997,242.92862182796358L444.5025,243.9551176050582L447.655,245.77879659052365L450.8075,254.60636895555237L453.96,253.5564288204107L457.1125,248.74347793490847L460.265,254.05766233037036L463.4175,254.49678147998102L466.57,257.47138605813177L469.7225,263.8742438453435L472.875,259.1772089761155L476.0275,254.82883185089997L479.18,249.09172720022679L482.3325,252.81767854363042L485.485,250.98884496424222L488.6375,253.70526969205937L491.79,252.94605153152025L494.9425,255.0106891610288L498.095,259.43307262426146L501.2475,262.1760462321202L504.40000000000003,262.4085038779592L507.5525,265.5681513339189L510.70500000000004,255.25480437729487L513.8575,259.6799933256218L517.01,251.63666762446135L520.1625,257.94996565303074L523.3149999999999,254.9301322903344L526.4675,254.28108473030807L529.62,246.1412518193522L532.7725,258.18540649066136L535.925,262.7104736559292L539.0775,249.48109010925378L542.23,252.8477672547046L545.3825,261.83632364502637L548.535,266.11258058753833L551.6875,270.3314712618509L554.84,272.3406192849622L557.9925,267.6156902546016L561.145,270.56366419826486L564.2975,262.51643732295867L567.45,263.73105998528433L570.6025,264.680851437234L573.755,254.36332580047696L576.9075,256.82765773380225L580.0600000000001,257.8384245328486L583.2125,258.50522874633464L586.365,254.08714772622926L589.5175,263.4922725418022L592.67,266.87161739904263L595.8225,266.49220665665194L598.975,273.84059000577423L602.1274999999999,266.8918061971334L605.28,268.76159759451383L608.4325,266.0081065285427L611.585,267.41739006142586L614.7375,270.07587799268566L617.89,275.0312896165364L621.0425,272.822748112268L624.195,274.6732051758347L627.3475,276.62487528595454L630.5,279.72048221069736L633.6524999999999,281.891572943983L636.805,286.05625611897904L639.9575,280.8345608545169L643.11,281.44424110506066L646.2624999999999,281.8429531480403L649.415,281.10960550971305L652.5675,282.96461294299564L655.72,274.55195011023403L658.8725,278.33113460307976L662.025,280.28995863366094L665.1775,283.6271768351757L668.33,280.0218433923598L671.4825,285.77413214878976L674.635,290.6233301754144L677.7875,292.0775306852156L680.94,291.0813281776263L684.0925,286.44671957230804L687.245,283.8794733862823L690.3975,285.193077707846L693.5500000000001,288.02601980583273L696.7025,289.4971656083335L699.855,287.148376237962L703.0075,283.4341672796261L706.1600000000001,285.1789362138319L709.3125,282.9641326047749L712.4649999999999,282.58312651808257L715.6175,287.02375537077563L718.77,284.8250272320338L721.9225,282.4843893181119L725.0749999999999,291.1429478825487L728.2275,296.51562600569645L731.38,302.25238404840826L734.5325,299.26196541036387L737.685,300.8445685024913L740.8375,297.6314091410892L743.99,300.10942821406127L747.1425,295.1937424429141L750.295,297.3865192227293L753.4475,301.0032684636891L756.6,304.25667787134194L759.7525,307.5771691252307L762.905,295.2009535120777L766.0575,301.70196203170474L769.21,300.66892858781796L772.3625000000001,301.4404520299338L775.515,301.6606445120413L778.6675,299.6554033879423L781.82,300.9101088716974L784.9725000000001,297.45353556974214L788.125,295.97001903834035L791.2774999999999,300.4935913929553L794.43,305.42809269210676L797.5825,306.19831874001613L800.735,310.6611118761132L803.8874999999999,306.5847004118307L807.04,308.976008245257L810.1925,308.0817976408646L813.345,313.40916868698696L816.4975,318.43766721705424L819.65,316.2287036626159L822.8025,317.25396036029144L825.955,316.54750465192285L829.1075,315.89259774843725L832.26,313.8365046837663L835.4125,310.1327520184104L838.565,308.6177928652652L841.7175,310.36704421251176L844.87,310.786862667513L848.0225,314.6381217933369L851.1750000000001,316.341198548902L854.3275,318.20010679079826L857.48,317.9681673422849L860.6325,305.4055788332034L863.7850000000001,307.21491734382647L866.9375,315.0218290987866L870.0899999999999,317.4027999701057L873.2425,321.141062409824L876.395,321.0290256788067L879.5475,322.7941427737315L882.6999999999999,322.7845909013823L885.8525,320.0631105142093L889.005,322.05853933999197L892.1575,320.26102557213375L895.31,316.28554303732847L898.4625,318.8661186260933L901.615,320.73691249694724L904.7675,322.221238544706L907.92,322.60967261943347L911.0725,325.33091579630707L914.225,327.40600879471907L917.3775,325.85794784543333L920.53,328.3459959450977L923.6825,324.6245272803759L926.835,327.53372838956284L929.9875000000001,330.05670544082363L933.14,328.30001808917615L936.2925,326.27363305263236L939.445,327.4433759798387L942.5975000000001,331.08423273945243L945.75,329.3791246774288L948.9024999999999,329.64466937045916L952.055,329.4017501112603L955.2075,328.0484577967225L958.36,326.42634683910853L961.5124999999999,328.522201284721L964.665,329.63223710014836L967.8175,331.1908497082173L970.97,328.56723175788653L974.1225,327.3937437265372L977.275,329.8149493056092L980.4275,333.5052336575548L983.58,335.4183095749252L986.7325,334.77872900275025L989.885,335.30570262564373L993.0375,335.8217049166578L996.19,337.0515206292282L999.3425,336.1935166907743L1002.495,338.65838170176784L1005.6475,337.57143589844213L1008.8000000000001,336.94082768894043L1011.9525,336.56679002639027L1015.105,336.73158998265825L1018.2575,337.4971670242929L1021.4100000000001,338.9532058641696L1024.5625,337.48809431142206L1027.715,337.0840697058832L1030.8675,338.69419867125214L1034.02,339.3436282483931L1037.1725,339.4641289426375L1040.325,339.88443376842923L1043.4775,339.62468987666415L1046.6299999999999,339.56547184138634L1049.7825,339.8340179302386L1052.935,340.7124761244794L1056.0875,340.45424587307645L1059.24,340.2784225782734L1062.3925,340.00022650179585L1065.545,339.24841889051135L1068.6975,339.90642984607626L1071.85,340.8240712483369L1075.0025,340.57356026340807L1078.155,339.93792607101796L1081.3075000000001,339.6421438285206L1084.46,339.22545194795697L1087.6125,339.950913646559L1090.765,340.04601256772287L1093.9175,340.37578259286784L1097.07,340.46214695883015L1100.2225,340.78768744365277L1103.375,340.75764414589" style="fill: none;" fill="none"></path></g><g><path stroke="rgb(238, 51, 119)" stroke-width="2px" d="M160.7775,23.187382783208605L163.93,34.81264907121658L167.0825,39.3181812214087L170.235,42.786015816909476L173.38750000000002,45.84787679257473L176.54000000000002,48.27360097578753L179.6925,51.69899092401734L182.845,54.44635632554394L185.9975,57.36210729859291L189.15,59.93977866187471L192.3025,62.84380254641584L195.455,66.57876957059315L198.6075,69.41808871448966L201.76,72.43408984154806L204.9125,77.17646538248499L208.065,79.26179682678982L211.2175,83.72570003839475L214.37,90.95961474668681L217.52249999999998,97.84076607776696L220.67499999999998,104.09200056627579L223.8275,113.27228653782966L226.98,112.65932851820921L230.1325,115.77237520293771L233.285,121.17887826113275L236.4375,123.86258055820227L239.59,130.18531022823998L242.7425,134.74120793057693L245.895,140.76124416659127L249.0475,145.74372241164377L252.20000000000002,148.74196543633155L255.35250000000002,151.75336646478954L258.505,157.7044797218896L261.65749999999997,162.7758923835411L264.81,168.37708336042434L267.9625,173.44179577464737L271.115,175.7836063591168L274.2675,175.45670881761046L277.42,176.51295986589076L280.5725,178.85162649651343L283.725,180.16871136662576L286.8775,183.45406607453748L290.03000000000003,181.95984734195352L293.1825,182.4938232693214L296.335,191.09544768952452L299.4875,187.2594772651311L302.64,190.87481744415504L305.7925,192.95779730199078L308.945,192.8495629184802L312.0975,195.92785250526146L315.25,191.61804889238684L318.4025,198.25482929282146L321.555,199.1020072491954L324.7075,201.3547275351149L327.86,206.8556529250087L331.0125,214.377068146339L334.165,217.22355501054943L337.3175,216.77854382769928L340.47,218.10904839246348L343.6225,215.11494797831077L346.77500000000003,217.61263511909524L349.9275,216.6783753125449L353.08000000000004,210.2608623336047L356.23249999999996,209.98540581985904L359.385,210.33381143303612L362.53749999999997,210.95897187304777L365.69,213.91189070308718L368.8425,215.05070593216723L371.995,218.47310128195878L375.1475,225.19525737480316L378.3,227.26991873163152L381.4525,225.45517999125136L384.605,223.5907101387197L387.7575,223.37805697475926L390.91,225.46554870953344L394.0625,227.6387171377891L397.215,228.68177539460217L400.3675,229.11080333885673L403.52,230.9697119483606L406.6725,233.1519329294545L409.825,227.20370688280784L412.9775,231.99783006028557L416.13,236.18489971758092L419.2825,235.6379654926983L422.435,232.9829251328578L425.58750000000003,236.83597346132393L428.74,236.9460601499232L431.89250000000004,234.44178847443945L435.04499999999996,237.01469198278295L438.1975,239.90039928630588L441.34999999999997,239.04548140179187L444.5025,239.3946640207746L447.655,239.53534185886932L450.8075,240.88291134494023L453.96,242.13712261949462L457.1125,239.26229857703734L460.265,243.20957940570355L463.4175,243.66181138265378L466.57,245.17091475704547L469.7225,250.57721197899295L472.875,243.43277877234803L476.0275,244.13120946172617L479.18,243.4536726220899L482.3325,241.85800062768092L485.485,249.3109607986612L488.6375,252.58594046698315L491.79,252.25885273615305L494.9425,249.63315001147006L498.095,248.13159360299716L501.2475,249.98538007112185L504.40000000000003,257.65407839196314L507.5525,257.67998703500353L510.70500000000004,254.7713937770171L513.8575,253.6078566591731L517.01,255.8537499935758L520.1625,259.53038081287764L523.3149999999999,260.8205268019574L526.4675,257.9103735603516L529.62,256.96954419803086L532.7725,259.28866026924356L535.925,263.81108456925335L539.0775,262.4121881744951L542.23,263.9966891063267L545.3825,264.41275437705093L548.535,264.4617600476968L551.6875,265.08530823719155L554.84,266.57847125387326L557.9925,267.7360208182616L561.145,269.09339225159016L564.2975,265.96033671503534L567.45,267.1469728410558L570.6025,265.29263707758884L573.755,261.48207692872904L576.9075,261.24356997353686L580.0600000000001,263.23302968093327L583.2125,266.81438530363357L586.365,265.35201411429813L589.5175,264.6662493525968L592.67,267.957322684809L595.8225,269.25801149906357L598.975,271.030652103519L602.1274999999999,273.0524042405289L605.28,275.1224975969384L608.4325,271.15715466824537L611.585,270.94845017723657L614.7375,273.37614581459496L617.89,276.1418501839605L621.0425,272.29273743747785L624.195,273.6673308570332L627.3475,274.5576571440188L630.5,277.9067119147813L633.6524999999999,283.36463965437287L636.805,282.6552132080541L639.9575,285.20910914943744L643.11,283.4546720619227L646.2624999999999,282.8202006292903L649.415,284.5160390982283L652.5675,288.42894348710576L655.72,285.36568110029066L658.8725,284.42202899956806L662.025,286.2089315335484L665.1775,285.9092985337438L668.33,285.79802303329734L671.4825,286.8704643298127L674.635,290.6549571713598L677.7875,290.95487342328295L680.94,290.85893125734435L684.0925,295.1828643541778L687.245,294.3290214575079L690.3975,295.72314478888876L693.5500000000001,292.42066220687406L696.7025,294.5002834436945L699.855,296.64864696318386L703.0075,293.3892043018182L706.1600000000001,296.5187438256986L709.3125,293.88827792143934L712.4649999999999,298.39550109705993L715.6175,302.17460454192474L718.77,302.10310062238744L721.9225,299.67915382324304L725.0749999999999,302.6932595613774L728.2275,303.51673133460315L731.38,303.2816545069332L734.5325,307.25387427381787L737.685,303.2508591125734L740.8375,307.9049575462707L743.99,311.87696819086904L747.1425,309.3594880666564L750.295,304.340077517404L753.4475,306.2960618722283L756.6,309.01425751034617L759.7525,312.5424293942872L762.905,313.6899100139598L766.0575,317.282085053955L769.21,316.3124415848801L772.3625000000001,314.86963928102637L775.515,316.25111078919196L778.6675,316.27102661465625L781.82,318.5684772834992L784.9725000000001,319.75795735581187L788.125,318.3225140074698L791.2774999999999,315.1774225158236L794.43,315.25337854503897L797.5825,317.97194883683335L800.735,319.12169582691627L803.8874999999999,321.18895553974414L807.04,323.7557587691688L810.1925,326.5497261973773L813.345,328.38008082124065L816.4975,329.22937002989846L819.65,330.13698756225824L822.8025,330.0800203516615L825.955,329.4552167572441L829.1075,328.1153549179438L832.26,331.7038121510831L835.4125,330.6745086672052L838.565,329.93797178213094L841.7175,331.12598008769754L844.87,333.9719139354621L848.0225,333.45011192662685L851.1750000000001,333.86988226918L854.3275,335.8742764204173L857.48,334.73494865780214L860.6325,336.44427074023315L863.7850000000001,332.2309928750972L866.9375,333.01344024889687L870.0899999999999,335.6448356664786L873.2425,338.6039960290387L876.395,341.4339063145243L879.5475,342.4385273409116L882.6999999999999,343.0408537478583L885.8525,343.12407205819534L889.005,342.62328818545694L892.1575,341.3965106859732L895.31,339.56278637804735L898.4625,335.5563194873563L901.615,340.384480618225L904.7675,344.9743387511377L907.92,347.2142755668251L911.0725,348.9484746129702L914.225,352.68719991189863L917.3775,351.90331869891577L920.53,352.8224106081886L923.6825,355.0433258034497L926.835,351.58153700082613L929.9875000000001,353.37279942609905L933.14,356.1839578942284L936.2925,357.7134654621633L939.445,356.7098394828393L942.5975000000001,358.46605441384213L945.75,356.87338267385013L948.9024999999999,356.10537033960935L952.055,358.00100811532565L955.2075,358.80396845637046L958.36,358.61884214442796L961.5124999999999,357.3042254275363L964.665,358.51238140705624L967.8175,358.1026171605109L970.97,359.7700220612307L974.1225,361.33381816551804L977.275,359.6886009519782L980.4275,361.3386229210104L983.58,363.2307516943645L986.7325,364.03374618954854L989.885,365.69473654088955L993.0375,365.85215950387123L996.19,365.38437242988334L999.3425,364.89602847081005L1002.495,365.9049568996013L1005.6475,366.2345857567128L1008.8000000000001,367.85831826436316L1011.9525,368.43262459682956L1015.105,369.3617677177129L1018.2575,369.8661483125683L1021.4100000000001,371.9085194338865L1024.5625,371.5675017372757L1027.715,371.5407775883328L1030.8675,372.30649304144004L1034.02,373.1770412038624L1037.1725,373.16142837299634L1040.325,373.15528525595676L1043.4775,372.38242033532146L1046.6299999999999,373.79412053983225L1049.7825,372.83259826619775L1052.935,374.542441238706L1056.0875,375.11323642970945L1059.24,375.1961772694696L1062.3925,374.3984498533314L1065.545,374.3283657905795L1068.6975,372.928381333533L1071.85,374.1839464884555L1075.0025,373.33097371945115L1078.155,375.0174606045871L1081.3075000000001,373.6903064958157L1084.46,373.9536237034058L1087.6125,374.3775031616857L1090.765,374.74967652945855L1093.9175,374.87586109955305L1097.07,372.5228536664029L1100.2225,373.46834506877883L1103.375,373.99391456418414" style="fill: none;" fill="none"></path></g><g><path stroke="rgb(204, 51, 17)" stroke-width="2px" d="M211.2175,-9.625941273119775L214.37,4.040798239246616L217.52249999999998,20.608221949671584L220.67499999999998,35.870706957888395L223.8275,44.4284696256442L226.98,51.554896919720875L230.1325,56.70241896384871L233.285,55.07293429101773L236.4375,52.8198706628559L239.59,74.67721726024925L242.7425,72.63664997469286L245.895,79.47000088873723L249.0475,83.37023550253369L252.20000000000002,77.63662504575042L255.35250000000002,77.7561155170745L258.505,87.91308161026976L261.65749999999997,96.97553228231055L264.81,93.84082226648121L267.9625,97.21781374134073L271.115,103.28401598360193L274.2675,98.31574506340114L277.42,109.81290624957474L280.5725,109.90523977721583L283.725,114.59300720425433L286.8775,119.0015802845584L290.03000000000003,123.50581653723671L293.1825,121.80819936998505L296.335,127.4461026055488L299.4875,127.21596503119217L302.64,130.68802696575278L305.7925,137.69610048964608L308.945,129.70072051051181L312.0975,137.85402809319282L315.25,138.48430046623744L318.4025,144.37542282541662L321.555,126.97581151974293L324.7075,143.26649299944984L327.86,150.8344920412201L331.0125,151.9616843457611L334.165,149.27611431708527L337.3175,165.4779446402775L340.47,170.7968230107614L343.6225,164.77760893799797L346.77500000000003,167.99525933852001L349.9275,170.29739070426697L353.08000000000004,173.63054769672584L356.23249999999996,172.41655658488904L359.385,179.14120498694533L362.53749999999997,180.5003522019581L365.69,178.68429955130787L368.8425,185.47786923647087L371.995,180.463490512372L375.1475,181.12773381171962L378.3,178.82945748864617L381.4525,186.6760819068066L384.605,193.19758429504788L387.7575,198.34184248502044L390.91,186.63237397907878L394.0625,192.90300502033827L397.215,195.67281605478914L400.3675,198.05664297149653L403.52,194.6559928122951L406.6725,203.61078674662585L409.825,205.63665346544073L412.9775,207.4042719242297L416.13,207.52673215407347L419.2825,205.0933425691873L422.435,207.41778293567089L425.58750000000003,210.44723452774141L428.74,210.32636221437133L431.89250000000004,213.26660912149237L435.04499999999996,216.99234930991412L438.1975,218.9908982364067L441.34999999999997,217.15652623971957L444.5025,220.85576881545325L447.655,219.54555810438117L450.8075,215.35403608477597L453.96,219.5284360973966L457.1125,224.68796119266347L460.265,226.5671567407805L463.4175,226.58015341769718L466.57,225.62434567934906L469.7225,225.9417058412403L472.875,226.7489238644429L476.0275,230.95451480025494L479.18,232.27013278443562L482.3325,233.45368899879512L485.485,233.40985169567688L488.6375,234.2741694091952L491.79,235.0238256171292L494.9425,237.84131283423406L498.095,237.05834411555335L501.2475,238.3201743745946L504.40000000000003,240.66132049466032L507.5525,240.6243618291906L510.70500000000004,240.31820517042743L513.8575,240.61043307850724L517.01,241.69677428151007L520.1625,243.406569162619L523.3149999999999,244.5001478567535L526.4675,244.8937894227139L529.62,244.89903718790174L532.7725,244.50858466789154L535.925,243.96908059695377L539.0775,245.89812310155213L542.23,244.8714684633799L545.3825,246.67395994253428L548.535,246.9753019301485L551.6875,247.74201470118535L554.84,248.3313466365954L557.9925,248.64130079057168L561.145,250.0639524452554L564.2975,250.84995081721607L567.45,251.35915979222918L570.6025,249.68562357369083L573.755,249.89301353965587L576.9075,250.2681655508456L580.0600000000001,250.38217321596176L583.2125,250.63961629606263L586.365,250.8301062888408L589.5175,251.26913120870532L592.67,251.40770397669348L595.8225,251.60192475881234L598.975,251.87788541586258L602.1274999999999,252.48371910393018L605.28,252.74818020495212L608.4325,252.6750208531338L611.585,252.5960384569988L614.7375,252.49963024460402L617.89,253.20503364156133L621.0425,253.50785706303216L624.195,253.6465866574491L627.3475,253.89504368698525L630.5,253.83126021553062" style="fill: none;" fill="none"></path></g><g><path stroke="rgb(0, 119, 187)" stroke-width="2px" d="M217.52249999999998,-1.7711380403790218L220.67499999999998,5.255106047175838L223.8275,8.44289559923453L226.98,19.838506311844807L230.1325,24.53418830990208L233.285,29.292893379806912L236.4375,30.53380995662873L239.59,36.61600090459513L242.7425,41.868323921323366L245.895,44.62995219493424L249.0475,50.529933141704205L252.20000000000002,52.56211916765331L255.35250000000002,54.264992586541084L258.505,51.41706432278706L261.65749999999997,53.96770859162358L264.81,64.60810139590617L267.9625,71.88472898909507L271.115,78.85472918680156L274.2675,80.01952253782886L277.42,78.17697248884097L280.5725,77.33701058455765L283.725,85.71113929982329L286.8775,89.99272687850711L290.03000000000003,97.04739488304959L293.1825,96.56595707265468L296.335,99.38742071123596L299.4875,97.68599111004728L302.64,105.38399077459087L305.7925,102.718799678692L308.945,107.98124771619258L312.0975,109.87148330310488L315.25,107.79348566181045L318.4025,112.17469728193207L321.555,116.57140016336588L324.7075,121.53498556142665L327.86,129.81452210076324L331.0125,127.83304462032L334.165,131.90652102093793L337.3175,136.87430011632412L340.47,139.03323699390626L343.6225,139.98092856534063L346.77500000000003,143.60418039534295L349.9275,143.2472732150696L353.08000000000004,144.3357121585863L356.23249999999996,147.52276689557863L359.385,145.14868508001769L362.53749999999997,153.36658530196485L365.69,154.854403353867L368.8425,160.1015150853531L371.995,160.21405935764102L375.1475,163.7619831284102L378.3,164.79998458488933L381.4525,166.19656302882015L384.605,169.01226838356214L387.7575,170.2536272521374L390.91,172.39151313482782L394.0625,166.61243369413566L397.215,165.59774170231145L400.3675,171.21635254228053L403.52,171.1502981662985L406.6725,179.10177232335002L409.825,181.64785289302043L412.9775,176.32519969662766L416.13,179.4695010093665L419.2825,177.74011413161L422.435,179.81061259621234L425.58750000000003,188.1516520483127L428.74,192.41071524381485L431.89250000000004,192.43374117708117L435.04499999999996,195.2560468260487L438.1975,192.90628976999255L441.34999999999997,192.27097711873878L444.5025,199.12708578568677L447.655,199.2848299319692L450.8075,204.95306198108227L453.96,202.59879900230362L457.1125,204.93767661409183L460.265,208.47596824330623L463.4175,209.83278009307196L466.57,210.87935808308004L469.7225,215.49521814503802L472.875,212.27002373680875L476.0275,214.5050661933574L479.18,220.53462350883717L482.3325,218.68843057805339L485.485,221.73890653455112L488.6375,220.8122503812202L491.79,217.8960749148098L494.9425,222.7137169571551L498.095,226.5721774077656L501.2475,229.78143702433536L504.40000000000003,227.98667003206032L507.5525,228.67903769905342L510.70500000000004,229.62239082393037L513.8575,227.74202877637225L517.01,229.49578164687782L520.1625,231.7468265079577L523.3149999999999,233.60387161869522L526.4675,238.49545914146813L529.62,237.9469776592038L532.7725,235.02138321305745L535.925,237.7080905751995L539.0775,240.9176262669587L542.23,237.29539184544566L545.3825,236.23009379030853L548.535,242.06437222553248L551.6875,245.47096576924892L554.84,245.6682206140675L557.9925,247.310091163661L561.145,247.38279015520823L564.2975,248.51729076155365L567.45,245.94874296132016L570.6025,246.43236895868014L573.755,246.88078499460372L576.9075,246.89763350177586L580.0600000000001,242.05422904169683L583.2125,245.30277441785412L586.365,244.776212760312L589.5175,247.93332818231573L592.67,247.7437505769484L595.8225,247.11682527349905L598.975,247.81120546171124L602.1274999999999,247.72636541005832L605.28,249.33725241417378L608.4325,250.11077840767828L611.585,252.22991165220543L614.7375,250.15755999164807L617.89,249.61871603602953L621.0425,250.5503930196792L624.195,252.52228272999534L627.3475,252.3198256112137L630.5,253.82906825984367" style="fill: none;" fill="none"></path></g></g></g></g><g opacity="0.2"><g><g><g><path stroke="rgb(0, 153, 136)" stroke-width="2px" d="M160.7775,37.69745372022905L163.93,46.21362316608429L167.0825,48.861600041389465L170.235,51.733740704400205L173.38750000000002,36.20724444729943L176.54000000000002,58.176483392715454L179.6925,61.124704275812434L182.845,61.80178613322124L185.9975,66.3832920449121L189.15,69.15254785333362L192.3025,74.63144724709649L195.455,77.69305012907304L198.6075,82.95349977697649L201.76,88.15016402517047L204.9125,76.31394365855627L208.065,98.94100364616942L211.2175,105.87325995309014L214.37,116.32077554294042L217.52249999999998,119.74091850008283L220.67499999999998,105.58537496839251L223.8275,132.61138044084822L226.98,128.93731573649816L230.1325,122.76123903478894L233.285,143.07831735270366L236.4375,143.8668872288295L239.59,155.481929234096L242.7425,137.21503629003251L245.895,149.98235656533922L249.0475,165.89519267422813L252.20000000000002,173.1962614910943L255.35250000000002,172.77663253034865L258.505,145.74073983941759L261.65749999999997,188.0663812671389L264.81,194.42408745629444L267.9625,172.71954026392527L271.115,197.5172459738595L274.2675,193.7229937825884L277.42,173.4584332874843L280.5725,201.66315249885835L283.725,183.6793132850102L286.8775,200.07874178886414L290.03000000000003,192.68603964362825L293.1825,203.65752966063366L296.335,230.40105922733034L299.4875,215.34136487756456L302.64,186.0409781421934L305.7925,170.81389125755854L308.945,198.58772998196736L312.0975,202.24163503306255L315.25,222.99959341117315L318.4025,208.36894977092743L321.555,200.82437609774723L324.7075,229.00386364119396L327.86,212.2162494574274L331.0125,237.83969841684615L334.165,234.348691710404L337.3175,212.78609672614508L340.47,216.3214354089328L343.6225,218.77545587505614L346.77500000000003,236.24100260223662L349.9275,225.29604435818538L353.08000000000004,234.9892101202692L356.23249999999996,218.90124504906788L359.385,218.8255339946066L362.53749999999997,244.56432313578472L365.69,237.99636909791403L368.8425,230.05983783517564L371.995,247.78975530181611L375.1475,251.59447253601894L378.3,219.64748928376608L381.4525,232.83116418123245L384.605,232.24297098602568L387.7575,231.96730056830816L390.91,241.07805137974873L394.0625,241.0903943521636L397.215,247.00527834892273L400.3675,249.2389390383448L403.52,229.20598984616146L406.6725,252.39583480358124L409.825,210.93457061052322L412.9775,240.1275461997305L416.13,212.2713995916503L419.2825,238.46695896557398L422.435,239.69713118246622L425.58750000000003,229.5650114417076L428.74,221.47798900944844L431.89250000000004,244.6783150604793L435.04499999999996,226.08902817113056L438.1975,238.89694061449595L441.34999999999997,255.85321533679962L444.5025,245.49486127070017L447.655,248.51431506872177L450.8075,267.84772750309537L453.96,251.98151861769813L457.1125,241.52405160665512L460.265,262.02893892356326L463.4175,255.15546020439692L466.57,261.9332929253578L469.7225,273.4785305261612L472.875,252.13165667227335L476.0275,248.30626616307669L479.18,240.48607022421703L482.3325,258.406605558736L485.485,248.24559459515982L488.6375,257.7799067837851L491.79,251.80722429071153L494.9425,258.1076456052916L498.095,266.06664781911036L501.2475,266.2905066439084L504.40000000000003,262.75719034671783L507.5525,270.30762251785825L510.70500000000004,239.78478394235884L513.8575,266.3177767481123L517.01,239.57167907272066L520.1625,267.4199126958847L523.3149999999999,250.40038224628992L526.4675,253.3075133902686L529.62,233.93150245291844L532.7725,276.2516384976251L535.925,269.49807440383097L539.0775,229.6370147892407L542.23,257.8977829728808L545.3825,275.31915823050906L548.535,272.5269660013063L551.6875,276.6598072733198L554.84,275.35434131962916L557.9925,260.52829670906067L561.145,274.98562511375974L564.2975,250.4455970099994L567.45,265.55299397877286L570.6025,266.10553861515865L573.755,238.8870373453413L576.9075,260.52415563379014L580.0600000000001,259.3545747314181L583.2125,259.50543506656373L586.365,247.46002619607108L589.5175,277.59995976516177L592.67,271.9406346849033L595.8225,265.92309054306577L598.975,284.86316502945766L602.1274999999999,256.4686304841723L605.28,271.56628469058444L608.4325,261.87786992958615L611.585,269.53131536075045L614.7375,274.06360988957545L617.89,282.4644070523126L621.0425,269.5099358558655L624.195,277.44889077118467L627.3475,279.5523804511343L630.5,284.36389259781157L633.6524999999999,285.14820904391155L636.805,292.30328088147303L639.9575,273.0020179578236L643.11,282.3587614808764L646.2624999999999,282.4410212125097L649.415,280.0095840522221L652.5675,285.7471240929195L655.72,261.9329558610916L658.8725,283.99991134234835L662.025,283.22819467953275L665.1775,288.6330041374479L668.33,274.6138432281358L671.4825,294.40256528343474L674.635,297.89712721535136L677.7875,294.2588314499174L680.94,289.58702441624234L684.0925,279.4948066643306L687.245,280.02860410724367L690.3975,287.1634841901915L693.5500000000001,292.27543295281276L696.7025,291.70388431208477L699.855,283.62519218240465L703.0075,277.8628538421222L706.1600000000001,287.79608961514066L709.3125,279.6419271911894L712.4649999999999,282.0116173880441L715.6175,293.6846986498152L718.77,281.5269350239209L721.9225,278.97343244722913L725.0749999999999,304.1307857292039L728.2275,304.574643190418L731.38,310.8575211124761L734.5325,294.77633745329723L737.685,303.2184731406825L740.8375,292.8116700989859L743.99,303.8264568235193L747.1425,287.82021378619334L750.295,300.67568439245224L753.4475,306.4283923251288L756.6,309.1367919828211L759.7525,312.5579060060637L762.905,276.63663009234835L766.0575,311.45347481114527L769.21,299.1193784219878L772.3625000000001,302.5977371931076L775.515,301.99093323520253L778.6675,296.64754170179367L781.82,302.7921670973301L784.9725000000001,292.26867561680933L788.125,293.74474424123764L791.2774999999999,307.27894992487774L794.43,312.829844640834L797.5825,307.3536578118801L800.735,317.3553015802588L803.8874999999999,300.470083215407L807.04,312.5629699953965L810.1925,306.7404817342758L813.345,321.40022525617053L816.4975,325.9804150121553L819.65,312.91525833095824L822.8025,318.7918454068048L825.955,315.4878210893699L829.1075,314.91023739320894L832.26,310.7523650867598L835.4125,304.57712302037646L838.565,306.3453541355474L841.7175,312.9909212333815L844.87,311.4165903500148L848.0225,320.41501048207283L851.1750000000001,318.89581368224964L854.3275,320.98846915364265L857.48,317.6202581695148L860.6325,286.56169606958116L863.7850000000001,309.9289251097611L866.9375,326.7321967312268L870.0899999999999,320.97425627708435L873.2425,326.74845606940136L876.395,320.86097058228086L879.5475,325.4418184161186L882.6999999999999,322.77026309285844L885.8525,315.9808899334499L889.005,325.05168257866586L892.1575,317.5647549203464L895.31,310.3223192351205L898.4625,322.7369820092406L901.615,323.5431033032281L904.7675,324.4477276163442L907.92,323.1923237315246L911.0725,329.41278056161747L914.225,330.51864829233716L917.3775,323.5358564215047L920.53,332.07806809459413L923.6825,319.04232428329334L926.835,331.8975300533431L929.9875000000001,333.84117101771494L933.14,325.6649870617049L936.2925,323.23405549781666L939.445,329.19799037064826L942.5975000000001,336.545517878873L945.75,326.8214625843934L948.9024999999999,330.04298641000474L952.055,329.03737122246196L955.2075,326.01851932491576L958.36,323.99318040268764L961.5124999999999,331.66598295313975L964.665,331.29729082328936L967.8175,333.52876862032076L970.97,324.6318048323904L974.1225,325.6335116795131L977.275,333.4467576742172L980.4275,339.0406601854733L983.58,338.2879234509809L986.7325,333.81935814448764L989.885,336.09616305998395L993.0375,336.59570835317885L996.19,338.8962441980839L999.3425,334.9065107830933L1002.495,342.35567921825816L1005.6475,335.94101719345366L1008.8000000000001,335.99491537468776L1011.9525,336.005733532565L1015.105,336.97878991706034L1018.2575,338.6455325867449L1021.4100000000001,341.1372641239848L1024.5625,335.29042698230063L1027.715,336.478032797575L1030.8675,341.1093921193055L1034.02,340.3177726141044L1037.1725,339.64487998400415L1040.325,340.5148910071169L1043.4775,339.23507403901647L1046.6299999999999,339.47664478846957L1049.7825,340.2368370635169L1052.935,342.0301634158407L1056.0875,340.06690049597194L1059.24,340.0146876360689L1062.3925,339.5829323870795L1065.545,338.1207074735846L1068.6975,340.8934462794236L1071.85,342.2005333517279L1075.0025,340.1977937860148L1078.155,338.9844747824328L1081.3075000000001,339.1984704647746L1084.46,338.60041412711143L1087.6125,341.0391061944621L1090.765,340.1886609494686L1093.9175,340.8704376305853L1097.07,340.5916935077735L1100.2225,341.27599817088674L1103.375,340.712579199246" style="fill: none;" fill="none"></path></g><g><path stroke="rgb(238, 51, 119)" stroke-width="2px" d="M160.7775,23.187382783208605L163.93,41.78780884402141L167.0825,43.643492085593124L170.235,46.86418930121832L173.38750000000002,49.84544248240337L176.54000000000002,51.629250781876706L179.6925,56.597353356225156L182.845,58.4520414556776L185.9975,61.66227362837114L189.15,63.76732022421703L192.3025,67.17349909033098L195.455,72.1608945812498L198.6075,73.66779656069622L201.76,76.95218287195482L204.9125,84.28445420946397L208.065,82.38832325594768L211.2175,90.41966588156566L214.37,101.80865011896405L217.52249999999998,108.16144480024066L220.67499999999998,113.46828091144562L223.8275,127.04221202645984L226.98,111.73991165842328L230.1325,120.44188376835417L233.285,129.2885688032423L236.4375,127.88811492919922L239.59,139.6693777697427L242.7425,141.57504282678877L245.895,149.79128927843914L249.0475,153.21743518965587L252.20000000000002,153.23932831627982L255.35250000000002,156.2704670088632L258.505,166.63114842346735L261.65749999999997,170.38301077059336L264.81,176.77886942454748L267.9625,181.03886417831694L271.115,179.29632217543468L274.2675,174.9663625104087L277.42,178.09733642850603L280.5725,182.35962642942155L283.725,182.14433866739273L286.8775,188.38209812981742L290.03000000000003,179.71851924487524L293.1825,183.29478715998786L296.335,203.99788431610384L299.4875,181.50552162953787L302.64,196.29782771212712L305.7925,196.08226708854951L308.945,192.68721134322033L312.0975,200.54528688532963L315.25,185.15334347316198L318.4025,208.20999989339285L321.555,200.37277418375015L324.7075,204.73380796398436L327.86,215.10704100983486L331.0125,225.6591909783227L334.165,221.49328530686245L337.3175,216.11102705342427L340.47,220.10480523960933L343.6225,210.62379735708237L346.77500000000003,221.3591658302716L349.9275,215.27698560271944L353.08000000000004,200.6345928651946L356.23249999999996,209.57222104924068L359.385,210.8564198528017L362.53749999999997,211.89671253306523L365.69,218.34126894814625L368.8425,216.75892877578735L371.995,223.60669430664606L375.1475,235.27849151406969L378.3,230.38191076687403L381.4525,222.73307188068117L384.605,220.79400535992212L387.7575,223.0590772288186L390.91,228.59678631169453L394.0625,230.89846978017263L397.215,230.24636277982168L400.3675,229.75434525523866L403.52,233.7580748626164L406.6725,236.42526440109526L409.825,218.28136781283789L412.9775,239.18901482650213L416.13,242.46550420352392L419.2825,234.81756415537424L422.435,229.00036459309712L425.58750000000003,242.61554595402308L428.74,237.1111901828221L431.89250000000004,230.68538096121378L435.04499999999996,240.8740472452981L438.1975,244.22896024159022L441.34999999999997,237.76310457502092L444.5025,239.9184379492487L447.655,239.7463586160115L450.8075,242.90426557404655L453.96,244.0184395313263L457.1125,234.95006251335144L460.265,249.1305006487029L463.4175,244.34015934807914L466.57,247.43456981863298L469.7225,258.6866578119142L472.875,232.71612896238054L476.0275,245.17885549579347L479.18,242.4373673626355L482.3325,239.46449263606752L485.485,260.49040105513166L488.6375,257.4984099694661L491.79,251.76822113990784L494.9425,245.69459592444557L498.095,245.87925899028778L501.2475,252.76605977330888L504.40000000000003,269.1571258732251L507.5525,257.71884999956404L510.70500000000004,250.40850389003754L513.8575,251.86255098240719L517.01,259.2225899951799L520.1625,265.0453270418303L523.3149999999999,262.75574578557695L526.4675,253.54514369794302L529.62,255.55830015454973L532.7725,262.76733437606265L535.925,270.59472101926804L539.0775,260.31384358235766L542.23,266.3734405040741L545.3825,265.0368522831372L548.535,264.53526855366573L551.6875,266.0206305214337L554.84,268.8182157788958L557.9925,269.472345164844L561.145,271.129449401583L564.2975,261.2607534102031L567.45,268.9269270300865L570.6025,262.5111334323883L573.755,255.76623670543947L576.9075,260.8858095407486L580.0600000000001,266.21721924202785L583.2125,272.186418737684L586.365,263.15845733029505L589.5175,263.63760221004486L592.67,272.8939326831273L595.8225,271.2090447204454L598.975,273.68961301020215L602.1274999999999,276.08503244604384L605.28,278.22763763155257L608.4325,265.20914027520587L611.585,270.6353934407234L614.7375,277.0176892706326L617.89,280.29040673800876L621.0425,266.5190683177539L624.195,275.7292209863663L627.3475,275.8931465744972L630.5,282.930294070925L633.6524999999999,291.5515312637602L636.805,281.59107353857587L639.9575,289.03995306151256L643.11,280.82301643065045L646.2624999999999,281.8684934803418L649.415,287.05979680163523L652.5675,294.29830007042204L655.72,280.77078752006804L658.8725,283.00655084848404L662.025,288.889285334519L665.1775,285.4598490340369L668.33,285.6311097826277L671.4825,288.4791262745857L674.635,296.3316964336804L677.7875,291.4047478011676L680.94,290.71501800843646L684.0925,301.66876399942805L687.245,293.04825711250305L690.3975,297.81432978596007L693.5500000000001,287.46693833385194L696.7025,297.61971529892514L699.855,299.87119224241803L703.0075,288.50004030976976L706.1600000000001,301.2130531115191L709.3125,289.9425790650504L712.4649999999999,305.1563358604908L715.6175,307.84325970922197L718.77,301.99584474308153L721.9225,296.04323362452647L725.0749999999999,307.21441816857885L728.2275,304.75193899444173L731.38,302.9290392654283L734.5325,313.212203924145L737.685,297.24633637070656L740.8375,314.8861051968166L743.99,317.8349841577666L747.1425,305.5832678803376L750.295,296.8109616935253L753.4475,309.2300384044647L756.6,313.09155096752306L759.7525,317.83468722019876L762.905,315.41113094346866L766.0575,322.67034761394774L769.21,314.8579763812678L772.3625000000001,312.70543582524573L775.515,318.32331805144037L778.6675,316.3009003528527L781.82,322.01465328676363L784.9725000000001,321.5421774642808L788.125,316.16934898495674L791.2774999999999,310.4597852783544L794.43,315.36731258886203L797.5825,322.04980427452494L800.735,320.8463163120406L803.8874999999999,324.2898451089859L807.04,327.6059636133058L810.1925,330.7406773396901L813.345,331.1256127570357L816.4975,330.50330384288515L819.65,331.4984138607979L822.8025,329.99456953576635L825.955,328.518011365618L829.1075,326.10556215899334L832.26,337.0864980007921L835.4125,329.13055344138826L838.565,328.8331664545195L841.7175,332.90799254604747L844.87,338.24081470710894L848.0225,332.66740891337395L851.1750000000001,334.49953778300966L854.3275,338.8808676472732L857.48,333.0259570138795L860.6325,339.00825386387964L863.7850000000001,325.91107607739315L866.9375,334.1871113095965L870.0899999999999,339.5919287928513L873.2425,343.0427365728787L876.395,345.67877174275264L879.5475,343.94545888049265L882.6999999999999,343.9443433582783L885.8525,343.24889952370097L889.005,341.8721123763493L892.1575,339.5563444367477L895.31,336.8121999161584L898.4625,329.54661915131976L901.615,347.6267223145281L904.7675,351.8591259505068L907.92,350.57418079035625L911.0725,351.5497731821878L914.225,358.29528786029135L917.3775,350.7274968794414L920.53,354.20104847209797L923.6825,358.37469859634126L926.835,346.3888537968908L929.9875000000001,356.05969306400846L933.14,360.40069559642245L936.2925,360.0077268140657L939.445,355.20440051385333L942.5975000000001,361.10037681034635L945.75,354.4843750638621L948.9024999999999,354.9533518382481L952.055,360.84446477890015L955.2075,360.0084089679377L958.36,358.34115267651424L961.5124999999999,355.33230035219873L964.665,360.3246153763362L967.8175,357.48797079069277L970.97,362.2711294123105L974.1225,363.679512321949L977.275,357.22077513166835L980.4275,363.8136558745589L983.58,366.06894485439574L986.7325,365.2382379323244L989.885,368.1862220679011L993.0375,366.08829394834385L996.19,364.6826918189015L999.3425,364.1635125322001L1002.495,367.4183495427881L1005.6475,366.7290290423802L1008.8000000000001,370.2939170258386L1011.9525,369.2940840955292L1015.105,370.75548239903793L1018.2575,370.6227192048516L1021.4100000000001,374.9720761158637L1024.5625,371.05597519235954L1027.715,371.50069136491845L1030.8675,373.45506622110094L1034.02,374.4828634474959L1037.1725,373.1380091266973L1040.325,373.14607058039735L1043.4775,371.2231229543686L1046.6299999999999,375.9116708465985L1049.7825,371.3903148557459L1052.935,377.1072056974684L1056.0875,375.9694292162146L1059.24,375.32058852910995L1062.3925,373.20185872912407L1065.545,374.2232396964516L1068.6975,370.8284046479634L1071.85,376.06729422083924L1075.0025,372.0515145659447L1078.155,377.5471909322909L1081.3075000000001,371.69957533265864L1084.46,374.348599514791L1087.6125,375.0133223491056L1090.765,375.30793658111776L1093.9175,375.0651379546949L1097.07,368.9933425166777L1100.2225,374.88658217234274L1103.375,374.782268807292" style="fill: none;" fill="none"></path></g><g><path stroke="rgb(204, 51, 17)" stroke-width="2px" d="M208.065,-45.97255480289459L211.2175,24.158513086182737L214.37,24.537437524114367L217.52249999999998,45.456833635057734L220.67499999999998,58.76303941862926L223.8275,57.264644299234675L226.98,62.24430336271014L230.1325,64.42360040119719L233.285,52.628726584570785L236.4375,49.44029123442516L239.59,107.4631439447403L242.7425,69.57580426761083L245.895,89.72001676900048L249.0475,89.22058383056097L252.20000000000002,69.03621252945494L255.35250000000002,77.93535118443627L258.505,103.14852872916632L261.65749999999997,110.56920720849719L264.81,89.1387574672699L267.9625,102.28330080849786L271.115,112.3833191905703L274.2675,90.86333875996728L277.42,127.05864792210717L280.5725,110.0437400681632L283.725,121.62465832914624L286.8775,125.61443989617486L290.03000000000003,130.26217091083527L293.1825,119.261773620333L296.335,135.9029574564525L299.4875,126.87075866971698L302.64,135.89611986705236L305.7925,148.20821077483043L308.945,117.70765054225922L312.0975,150.08398946693967L315.25,139.42970902579174L318.4025,153.21210636411394L321.555,100.87639456135888L324.7075,167.7025152189391L327.86,162.1864906038557L331.0125,153.6524728025709L334.165,145.247759274074L337.3175,189.78069012505665L340.47,178.77514056648528L343.6225,155.74878782885418L346.77500000000003,172.82173493930273L349.9275,173.75058775288718L353.08000000000004,178.63028318541393L356.23249999999996,170.5955699171339L359.385,189.22817759002962L362.53749999999997,182.5390730244773L365.69,175.96022057533264L368.8425,195.66822376421518L371.995,172.94192242622375L375.1475,182.1240987607411L378.3,175.38204300403595L381.4525,198.44601853404725L384.605,202.97983787740984L387.7575,206.0582297699792L390.91,169.06817122016633L394.0625,202.30895158222742L397.215,199.82753260646547L400.3675,201.63238334655762L403.52,189.5550175734929L406.6725,217.04297764812196L409.825,208.67545354366302L412.9775,210.05569961241312L416.13,207.71042249883925L419.2825,201.443258191858L422.435,210.90444348539626L425.58750000000003,214.9914119158472L428.74,210.1450537443161L431.89250000000004,217.67697948217392L435.04499999999996,222.58095959254675L438.1975,221.9887216261455L441.34999999999997,214.40496824468886L444.5025,226.4046326790537L447.655,217.58024203777313L450.8075,209.06675305536814L453.96,225.79003611632757L457.1125,232.42724883556366L460.265,229.38595006295614L463.4175,226.59964843307222L466.57,224.19063407182693L469.7225,226.417746084077L472.875,227.95975089924679L476.0275,237.26290120397294L479.18,234.24355976070677L482.3325,235.2290233203343L485.485,233.3440957409995L488.6375,235.57064597947254L491.79,236.1483099290303L494.9425,242.0675436598914L498.095,235.88389103753224L501.2475,240.21291976315632L504.40000000000003,244.1730396747589L507.5525,240.56892383098602L510.70500000000004,239.85897018228258L513.8575,241.04877494062697L517.01,243.32628608601436L520.1625,245.9712614842824L523.3149999999999,246.14051589795523L526.4675,245.4842517716544L529.62,244.90690883568354L532.7725,243.92290588787623L535.925,243.15982449054718L539.0775,248.79168685844965L542.23,243.33148650612154L545.3825,249.3776971612658L548.535,247.42731491156988L551.6875,248.8920838577407L554.84,249.21534453971046L557.9925,249.10623202153616L561.145,252.197929927281L564.2975,252.02894837515697L567.45,252.12297325474876L570.6025,247.1753192458834L573.755,250.2040984886033L576.9075,250.83089356763023L580.0600000000001,250.5531847136361L583.2125,251.025780916214L586.365,251.11584127800808L589.5175,251.92766858850206L592.67,251.61556312867575L595.8225,251.89325593199052L598.975,252.29182640143804L602.1274999999999,253.39246963603156L605.28,253.14487185648508L608.4325,252.5652818254062L611.585,252.47756486279624L614.7375,252.35501792601175L617.89,254.26313873699732L621.0425,253.9620921952384L624.195,253.85468104907446L627.3475,254.26772923128948L630.5,253.73558500834875" style="fill: none;" fill="none"></path></g><g><path stroke="rgb(0, 119, 187)" stroke-width="2px" d="M211.2175,-6.430004869188593L214.37,4.994130355971236L217.52249999999998,9.30909868649077L220.67499999999998,15.793829951967524L223.8275,13.224405101367424L226.98,36.93154740333557L230.1325,31.57761859893799L233.285,36.43089461326599L236.4375,32.39517600195751L239.59,45.73926138877869L242.7425,49.746795007160756L245.895,48.772390365600586L249.0475,59.37989912714281L252.20000000000002,55.610397083418746L255.35250000000002,56.819302150181386L258.505,47.1451724937984L261.65749999999997,57.79367469038286L264.81,80.56868984018054L267.9625,82.79967006615233L271.115,89.3097293036325L274.2675,81.76671254634857L277.42,75.41314743246355L280.5725,76.07706773281097L283.725,98.27233234473638L286.8775,96.41510823794775L290.03000000000003,107.62939688137602L293.1825,95.8438003574099L296.335,103.61961616788592L299.4875,95.13384670870647L302.64,116.93099027020592L305.7925,98.72101303509307L308.945,115.87491977214813L312.0975,112.70683668340955L315.25,104.67648919991088L318.4025,118.74651471206121L321.555,123.16645448548455L324.7075,128.98036365849632L327.86,142.23382690974645L331.0125,124.8608283996582L334.165,138.01673562186107L337.3175,144.3259687594005L340.47,142.27164231027876L343.6225,141.4024659224919L346.77500000000003,149.039058140346L349.9275,142.71191244465965L353.08000000000004,145.96837057386125L356.23249999999996,152.30334900106703L359.385,141.5875623566764L362.53749999999997,165.6934356348855L365.69,157.0861304317202L368.8425,167.97218268258231L371.995,160.38287576607294L375.1475,169.0838687845639L378.3,166.3569867696081L381.4525,168.29143069471633L384.605,173.23582641567504L387.7575,172.1156655550003L390.91,175.5983419588634L394.0625,157.9438145330974L397.215,164.0757037145751L400.3675,179.6442688022341L403.52,171.05121660232544L406.6725,191.02898355892725L409.825,185.46697374752588L412.9775,168.34121990203857L416.13,184.18595297847475L419.2825,175.1460338149752L422.435,182.9163602931159L425.58750000000003,200.66321122646332L428.74,198.79931003706798L431.89250000000004,192.4682800769806L435.04499999999996,199.48950529950008L438.1975,189.38165418590822L441.34999999999997,191.31800814185823L444.5025,209.41124878610884L447.655,199.52144615139284L450.8075,213.45541005475178L453.96,199.06740453413553L457.1125,208.44599303177424L460.265,213.78340568712778L463.4175,211.86799786772048L466.57,212.44922506809235L469.7225,222.419008237975L472.875,207.43223212446486L476.0275,217.85762987818038L479.18,229.57895948205675L482.3325,215.9191411818777L485.485,226.3146204692977L488.6375,219.42226615122385L491.79,213.52181171519413L494.9425,229.94018002067293L498.095,232.3598680836814L501.2475,234.59532644918986L504.40000000000003,225.29451954364777L507.5525,229.717589199543L510.70500000000004,231.03742051124573L513.8575,224.92148570503508L517.01,232.12641095263615L520.1625,235.12339379957743L523.3149999999999,236.38943928480148L526.4675,245.8328404256276L529.62,237.12425543580736L532.7725,230.63299154383793L535.925,241.7381516184126L539.0775,245.73192980459757L542.23,231.86204021317616L545.3825,234.63214670760289L548.535,250.81578987836838L551.6875,250.5808560848236L554.84,245.96410288129533L557.9925,249.77289698805131L561.145,247.4918386425291L564.2975,250.21904167107172L567.45,242.09592126097L570.6025,247.1578079547201L573.755,247.5534090484892L576.9075,246.92290626253404L580.0600000000001,234.78912235157833L583.2125,250.17559248209L586.365,243.98637027399883L589.5175,252.66900131532125L592.67,247.45938416889734L595.8225,246.17643731832504L598.975,248.85277574402946L602.1274999999999,247.59910533257894L605.28,251.75358292034693L608.4325,251.27106739793504L611.585,255.40861151899614L614.7375,247.049032500812L617.89,248.81045010260172L621.0425,251.9479084951537L624.195,255.48011729546957L627.3475,252.0161399330412L630.5,256.09293223278866" style="fill: none;" fill="none"></path></g></g></g></g></g></g><g transform="translate(50, 377)" clip-path="url(#clip_1)"><clipPath id="clip_1"><rect width="1261" height="23"></rect></clipPath><g><g><line x1="0" y1="0" x2="0" y2="5" style="visibility: inherit;" fill="rgb(0, 0, 0)" stroke="rgb(204, 204, 204)" stroke-width="1px"></line><line x1="157.625" y1="0" x2="157.625" y2="5" style="visibility: inherit;" fill="rgb(0, 0, 0)" stroke="rgb(204, 204, 204)" stroke-width="1px"></line><line x1="315.25" y1="0" x2="315.25" y2="5" style="visibility: inherit;" fill="rgb(0, 0, 0)" stroke="rgb(204, 204, 204)" stroke-width="1px"></line><line x1="472.875" y1="0" x2="472.875" y2="5" style="visibility: inherit;" fill="rgb(0, 0, 0)" stroke="rgb(204, 204, 204)" stroke-width="1px"></line><line x1="630.5" y1="0" x2="630.5" y2="5" style="visibility: inherit;" fill="rgb(0, 0, 0)" stroke="rgb(204, 204, 204)" stroke-width="1px"></line><line x1="788.125" y1="0" x2="788.125" y2="5" style="visibility: inherit;" fill="rgb(0, 0, 0)" stroke="rgb(204, 204, 204)" stroke-width="1px"></line><line x1="945.75" y1="0" x2="945.75" y2="5" style="visibility: inherit;" fill="rgb(0, 0, 0)" stroke="rgb(204, 204, 204)" stroke-width="1px"></line><line x1="1103.375" y1="0" x2="1103.375" y2="5" style="visibility: inherit;" fill="rgb(0, 0, 0)" stroke="rgb(204, 204, 204)" stroke-width="1px"></line><line x1="1261" y1="0" x2="1261" y2="5" style="visibility: inherit;" fill="rgb(0, 0, 0)" stroke="rgb(204, 204, 204)" stroke-width="1px"></line></g><g transform="translate(0, 8)"><text x="0" y="0" dx="0em" dy="0.95em" style="text-anchor: middle; visibility: hidden; font-family: Roboto, sans-serif; font-size: 12px; font-weight: 200;" fill="rgb(255, 255, 255)" stroke="none" stroke-width="1px">-50</text><text x="157.625" y="0" dx="0em" dy="0.95em" style="text-anchor: middle; visibility: inherit; font-family: Roboto, sans-serif; font-size: 12px; font-weight: 200;" fill="rgb(255, 255, 255)" stroke="none" stroke-width="1px">0</text><text x="315.25" y="0" dx="0em" dy="0.95em" style="text-anchor: middle; visibility: inherit; font-family: Roboto, sans-serif; font-size: 12px; font-weight: 200;" fill="rgb(255, 255, 255)" stroke="none" stroke-width="1px">50</text><text x="472.875" y="0" dx="0em" dy="0.95em" style="text-anchor: middle; visibility: inherit; font-family: Roboto, sans-serif; font-size: 12px; font-weight: 200;" fill="rgb(255, 255, 255)" stroke="none" stroke-width="1px">100</text><text x="630.5" y="0" dx="0em" dy="0.95em" style="text-anchor: middle; visibility: inherit; font-family: Roboto, sans-serif; font-size: 12px; font-weight: 200;" fill="rgb(255, 255, 255)" stroke="none" stroke-width="1px">150</text><text x="788.125" y="0" dx="0em" dy="0.95em" style="text-anchor: middle; visibility: inherit; font-family: Roboto, sans-serif; font-size: 12px; font-weight: 200;" fill="rgb(255, 255, 255)" stroke="none" stroke-width="1px">200</text><text x="945.75" y="0" dx="0em" dy="0.95em" style="text-anchor: middle; visibility: inherit; font-family: Roboto, sans-serif; font-size: 12px; font-weight: 200;" fill="rgb(255, 255, 255)" stroke="none" stroke-width="1px">250</text><text x="1103.375" y="0" dx="0em" dy="0.95em" style="text-anchor: middle; visibility: inherit; font-family: Roboto, sans-serif; font-size: 12px; font-weight: 200;" fill="rgb(255, 255, 255)" stroke="none" stroke-width="1px">300</text><text x="1261" y="0" dx="0em" dy="0.95em" style="text-anchor: middle; visibility: hidden; font-family: Roboto, sans-serif; font-size: 12px; font-weight: 200;" fill="rgb(255, 255, 255)" stroke="none" stroke-width="1px">350</text></g><line x1="0" y1="0" x2="1261" y2="0" fill="rgb(0, 0, 0)" stroke="rgb(204, 204, 204)" stroke-width="1px"></line></g></g></g></g></svg>