<svg viewBox="0 0 1285.666748046875 400" xmlns="http://www.w3.org/2000/svg"><g><g><g><g><g><line x1="51.5625" y1="377" x2="46.5625" y2="377" style="visibility: inherit;" fill="rgb(0, 0, 0)" stroke="rgb(204, 204, 204)" stroke-width="1px"></line><line x1="51.5625" y1="339.3" x2="46.5625" y2="339.3" style="visibility: inherit;" fill="rgb(0, 0, 0)" stroke="rgb(204, 204, 204)" stroke-width="1px"></line><line x1="51.5625" y1="301.6" x2="46.5625" y2="301.6" style="visibility: inherit;" fill="rgb(0, 0, 0)" stroke="rgb(204, 204, 204)" stroke-width="1px"></line><line x1="51.5625" y1="263.9" x2="46.5625" y2="263.9" style="visibility: inherit;" fill="rgb(0, 0, 0)" stroke="rgb(204, 204, 204)" stroke-width="1px"></line><line x1="51.5625" y1="226.2" x2="46.5625" y2="226.2" style="visibility: inherit;" fill="rgb(0, 0, 0)" stroke="rgb(204, 204, 204)" stroke-width="1px"></line><line x1="51.5625" y1="188.5" x2="46.5625" y2="188.5" style="visibility: inherit;" fill="rgb(0, 0, 0)" stroke="rgb(204, 204, 204)" stroke-width="1px"></line><line x1="51.5625" y1="150.8" x2="46.5625" y2="150.8" style="visibility: inherit;" fill="rgb(0, 0, 0)" stroke="rgb(204, 204, 204)" stroke-width="1px"></line><line x1="51.5625" y1="113.10000000000002" x2="46.5625" y2="113.10000000000002" style="visibility: inherit;" fill="rgb(0, 0, 0)" stroke="rgb(204, 204, 204)" stroke-width="1px"></line><line x1="51.5625" y1="75.39999999999998" x2="46.5625" y2="75.39999999999998" style="visibility: inherit;" fill="rgb(0, 0, 0)" stroke="rgb(204, 204, 204)" stroke-width="1px"></line><line x1="51.5625" y1="37.69999999999999" x2="46.5625" y2="37.69999999999999" style="visibility: inherit;" fill="rgb(0, 0, 0)" stroke="rgb(204, 204, 204)" stroke-width="1px"></line><line x1="51.5625" y1="0" x2="46.5625" y2="0" style="visibility: inherit;" fill="rgb(0, 0, 0)" stroke="rgb(204, 204, 204)" stroke-width="1px"></line></g><g transform="translate(41.5625, 0)"><text x="0" y="377" dx="0em" dy="0.3em" style="text-anchor: end; visibility: hidden; font-family: Roboto, sans-serif; font-size: 12px; font-weight: 200;" fill="rgb(255, 255, 255)" stroke="none" stroke-width="1px">0</text><text x="0" y="339.3" dx="0em" dy="0.3em" style="text-anchor: end; visibility: inherit; font-family: Roboto, sans-serif; font-size: 12px; font-weight: 200;" fill="rgb(255, 255, 255)" stroke="none" stroke-width="1px">0.05</text><text x="0" y="301.6" dx="0em" dy="0.3em" style="text-anchor: end; visibility: inherit; font-family: Roboto, sans-serif; font-size: 12px; font-weight: 200;" fill="rgb(255, 255, 255)" stroke="none" stroke-width="1px">0.1</text><text x="0" y="263.9" dx="0em" dy="0.3em" style="text-anchor: end; visibility: inherit; font-family: Roboto, sans-serif; font-size: 12px; font-weight: 200;" fill="rgb(255, 255, 255)" stroke="none" stroke-width="1px">0.15</text><text x="0" y="226.2" dx="0em" dy="0.3em" style="text-anchor: end; visibility: inherit; font-family: Roboto, sans-serif; font-size: 12px; font-weight: 200;" fill="rgb(255, 255, 255)" stroke="none" stroke-width="1px">0.2</text><text x="0" y="188.5" dx="0em" dy="0.3em" style="text-anchor: end; visibility: inherit; font-family: Roboto, sans-serif; font-size: 12px; font-weight: 200;" fill="rgb(255, 255, 255)" stroke="none" stroke-width="1px">0.25</text><text x="0" y="150.8" dx="0em" dy="0.3em" style="text-anchor: end; visibility: inherit; font-family: Roboto, sans-serif; font-size: 12px; font-weight: 200;" fill="rgb(255, 255, 255)" stroke="none" stroke-width="1px">0.3</text><text x="0" y="113.10000000000002" dx="0em" dy="0.3em" style="text-anchor: end; visibility: inherit; font-family: Roboto, sans-serif; font-size: 12px; font-weight: 200;" fill="rgb(255, 255, 255)" stroke="none" stroke-width="1px">0.35</text><text x="0" y="75.39999999999998" dx="0em" dy="0.3em" style="text-anchor: end; visibility: inherit; font-family: Roboto, sans-serif; font-size: 12px; font-weight: 200;" fill="rgb(255, 255, 255)" stroke="none" stroke-width="1px">0.4</text><text x="0" y="37.69999999999999" dx="0em" dy="0.3em" style="text-anchor: end; visibility: inherit; font-family: Roboto, sans-serif; font-size: 12px; font-weight: 200;" fill="rgb(255, 255, 255)" stroke="none" stroke-width="1px">0.45</text><text x="0" y="0" dx="0em" dy="0.3em" style="text-anchor: end; visibility: hidden; font-family: Roboto, sans-serif; font-size: 12px; font-weight: 200;" fill="rgb(255, 255, 255)" stroke="none" stroke-width="1px">0.5</text></g><line x1="51.5625" y1="0" x2="51.5625" y2="377" fill="rgb(0, 0, 0)" stroke="rgb(204, 204, 204)" stroke-width="1px"></line></g></g><g transform="translate(51, 0)" clip-path="url(#clip_0)"><clipPath id="clip_0"><rect width="1244" height="377"></rect></clipPath><g><g><g><line x1="0" y1="0" x2="0" y2="377" fill="rgb(0, 0, 0)" stroke="rgb(189, 189, 189)" stroke-width="1px" opacity="0.25"></line><line x1="155.5546875" y1="0" x2="155.5546875" y2="377" fill="rgb(0, 0, 0)" stroke="rgb(189, 189, 189)" stroke-width="1px" opacity="0.25"></line><line x1="311.109375" y1="0" x2="311.109375" y2="377" fill="rgb(0, 0, 0)" stroke="rgb(189, 189, 189)" stroke-width="1px" opacity="0.25"></line><line x1="466.6640625" y1="0" x2="466.6640625" y2="377" fill="rgb(0, 0, 0)" stroke="rgb(189, 189, 189)" stroke-width="1px" opacity="0.25"></line><line x1="622.21875" y1="0" x2="622.21875" y2="377" fill="rgb(0, 0, 0)" stroke="rgb(189, 189, 189)" stroke-width="1px" opacity="0.25"></line><line x1="777.7734375" y1="0" x2="777.7734375" y2="377" fill="rgb(0, 0, 0)" stroke="rgb(189, 189, 189)" stroke-width="1px" opacity="0.25"></line><line x1="933.328125" y1="0" x2="933.328125" y2="377" fill="rgb(0, 0, 0)" stroke="rgb(189, 189, 189)" stroke-width="1px" opacity="0.25"></line><line x1="1088.8828125" y1="0" x2="1088.8828125" y2="377" fill="rgb(0, 0, 0)" stroke="rgb(189, 189, 189)" stroke-width="1px" opacity="0.25"></line><line x1="1244.4375" y1="0" x2="1244.4375" y2="377" fill="rgb(0, 0, 0)" stroke="rgb(189, 189, 189)" stroke-width="1px" opacity="0.25"></line></g><g><line x1="0" y1="377" x2="1244.4375" y2="377" fill="rgb(0, 0, 0)" stroke="rgb(189, 189, 189)" stroke-width="1px" opacity="0.25"></line><line x1="0" y1="339.3" x2="1244.4375" y2="339.3" fill="rgb(0, 0, 0)" stroke="rgb(189, 189, 189)" stroke-width="1px" opacity="0.25"></line><line x1="0" y1="301.6" x2="1244.4375" y2="301.6" fill="rgb(0, 0, 0)" stroke="rgb(189, 189, 189)" stroke-width="1px" opacity="0.25"></line><line x1="0" y1="263.9" x2="1244.4375" y2="263.9" fill="rgb(0, 0, 0)" stroke="rgb(189, 189, 189)" stroke-width="1px" opacity="0.25"></line><line x1="0" y1="226.2" x2="1244.4375" y2="226.2" fill="rgb(0, 0, 0)" stroke="rgb(189, 189, 189)" stroke-width="1px" opacity="0.25"></line><line x1="0" y1="188.5" x2="1244.4375" y2="188.5" fill="rgb(0, 0, 0)" stroke="rgb(189, 189, 189)" stroke-width="1px" opacity="0.25"></line><line x1="0" y1="150.8" x2="1244.4375" y2="150.8" fill="rgb(0, 0, 0)" stroke="rgb(189, 189, 189)" stroke-width="1px" opacity="0.25"></line><line x1="0" y1="113.10000000000002" x2="1244.4375" y2="113.10000000000002" fill="rgb(0, 0, 0)" stroke="rgb(189, 189, 189)" stroke-width="1px" opacity="0.25"></line><line x1="0" y1="75.39999999999998" x2="1244.4375" y2="75.39999999999998" fill="rgb(0, 0, 0)" stroke="rgb(189, 189, 189)" stroke-width="1px" opacity="0.25"></line><line x1="0" y1="37.69999999999999" x2="1244.4375" y2="37.69999999999999" fill="rgb(0, 0, 0)" stroke="rgb(189, 189, 189)" stroke-width="1px" opacity="0.25"></line><line x1="0" y1="0" x2="1244.4375" y2="0" fill="rgb(0, 0, 0)" stroke="rgb(189, 189, 189)" stroke-width="1px" opacity="0.25"></line></g></g></g><g><g><line x1="0" y1="377" x2="1244.4375" y2="377" fill="rgb(0, 0, 0)" stroke="rgb(153, 153, 153)" stroke-width="1.5px"></line></g></g><g><g><line x1="155.5546875" y1="0" x2="155.5546875" y2="377" fill="rgb(0, 0, 0)" stroke="rgb(153, 153, 153)" stroke-width="1.5px"></line></g></g><g><g><g><g><g><path stroke="rgb(51, 187, 238)" stroke-width="2px" d="M158.66578125,375.49469872470945L161.77687500000002,375.49469872470945L164.88796875,375.49469872470945L167.9990625,375.4506574258164L171.11015625000002,375.11762368611926L174.22125000000003,373.49937968332637L177.33234374999998,371.219594203349L180.4434375,367.98795722166557L183.55453125,364.5505105183307L186.665625,364.88072624177255L189.77671875,363.27257557722254L192.8878125,358.6929204168103L195.99890625,353.6221671431895L199.11,348.6934044888492L202.22109375,350.6876330088528L205.3321875,345.95730308796664L208.44328125,339.20369277942024L211.55437500000002,335.41829642910903L214.66546874999997,330.12233034188387L217.77656249999998,327.8098508216649L220.88765625,320.31706744709777L223.99875,317.94828703659704L227.10984374999998,315.68133782189693L230.2209375,307.15171018872593L233.33203125,305.3936188999274L236.443125,297.876818606923L239.55421875000002,299.93226191350055L242.6653125,299.596954330219L245.77640625,296.61821552101L248.88750000000002,291.23510089113256L251.99859375000003,285.350177297775L255.10968749999998,293.49311510745474L258.22078125,285.5669943483118L261.33187499999997,277.39869015604535L264.44296875,280.4619725169251L267.5540625,272.3255203016709L270.66515625,268.21725646385886L273.77625,272.76764374115527L276.88734375,270.0647551544199L279.9984375,267.4896694344245L283.10953125000003,265.6274090705457L286.220625,265.74015316361505L289.33171875,263.13254300873274L292.4428125,249.79147277911326L295.55390625,248.45330118308357L298.66499999999996,258.20801955027554L301.77609375,267.08994376432264L304.8871875,259.0119985803421L307.99828125,253.02660141367335L311.109375,246.97251092177873L314.22046875,248.74583040942957L317.3315625,252.931796725227L320.44265625,243.23501215911216L323.55375000000004,241.7499340208533L326.66484375,234.9562177081162L329.7759375,227.69549461717656L332.88703125,236.21168440887678L335.998125,236.83514480775216L339.10921875,238.56046674839044L342.22031250000003,230.2768036972959L345.33140625000004,234.08698169299845L348.44250000000005,231.0036951774888L351.55359374999995,234.86997818199L354.66468749999996,237.3720997527075L357.77578124999997,227.952629789998L360.886875,228.5657680781423L363.99796875,228.4759402484739L367.1090625,220.94059655732175L370.22015625,213.05192956725514L373.33125,218.86541183829158L376.44234374999996,221.76948118233594L379.5534375,220.7538202764029L382.66453125,223.2428622818848L385.775625,220.25763368468645L388.88671875,212.20526711858014L391.9978125,208.30955106447158L395.10890625,204.7846799756886L398.22,210.6605578580976L401.33109375000004,211.96541082379107L404.4421875,226.11743292520572L407.55328125,215.14592177456694L410.664375,227.13189899197866L413.77546875,224.5139669017294L416.8865625,222.87470270611638L419.99765625000003,216.88576230655787L423.10875000000004,220.39686339646983L426.21984375000005,217.33761418789865L429.33093749999995,217.51729550916102L432.44203124999996,217.1009109434971L435.55312499999997,211.5614048372202L438.66421875,211.91188593688565L441.7753125,210.94702475060794L444.88640625,205.4562907027589L447.9975,203.07348777099767L451.10859375,204.22607782628725L454.21968749999996,195.75369038073177L457.33078125,197.6744713418958L460.441875,194.0906881233023L463.55296875,187.37771404623788L466.6640625,195.48217136168364L469.77515625,196.12530448737073L472.88625,205.80232490719752L475.99734375,204.1435658670747L479.10843750000004,204.4660384736826L482.21953125,197.2948475886804L485.330625,202.35567051228415L488.44171875,199.35811167989092L491.5528125,195.21638649722289L494.66390625,189.6855667711517L497.77500000000003,186.84339617974885L500.88609375000004,184.13340861372546L503.99718750000005,192.0449505971217L507.10828124999995,187.1702190116849L510.21937499999996,198.71958029722015L513.33046875,189.10863108906054L516.4415625,195.62292619629443L519.5526562499999,188.64082648804032L522.6637499999999,197.6396824625149L525.77484375,188.881681162537L528.8859375,187.25404243375115L531.99703125,196.6557353657797L535.108125,192.79941713346926L538.21921875,185.12821888645823L541.3303125,176.9683843357583L544.44140625,177.31949562449574L547.5525,174.7333469308574L550.66359375,174.74493481619112L553.7746875,176.4497296923575L556.88578125,187.1648895927773L559.996875,185.4073191993538L563.10796875,178.67592261511703L566.2190625000001,189.98403417038094L569.3301562500001,189.7717435536812L572.44125,187.96984289753615L575.55234375,184.39742905299772L578.6634375,193.02665806055612L581.77453125,177.09278636122076L584.885625,179.481643253233L587.99671875,181.905935319463L591.1078125,170.38256556522816L594.21890625,177.93996653993113L597.3299999999999,175.08258327269067L600.4410937499999,177.5877754713506L603.5521875,177.84648547324005L606.66328125,175.47312725634848L609.774375,166.831712490627L612.88546875,169.30088303465175L615.9965625,168.59452368008212L619.10765625,164.37673965208006L622.21875,162.73342012829943L625.3298437499999,156.3160377470694L628.4409375,153.2370360689188L631.5520312499999,158.46809251289517L634.663125,159.32290474880307L637.7742187499999,160.891198732308L640.8853125,156.23803185096472L643.99640625,153.794395510382L647.1075000000001,158.58015362264308L650.21859375,158.6890567293262L653.3296875,158.27860766354178L656.44078125,155.33234559120518L659.551875,158.56440192831624L662.66296875,146.41413368209047L665.7740625,140.72658298864272L668.88515625,142.89421891244834L671.99625,143.34103915138596L675.1073437499999,142.6222700419638L678.2184375,153.08604920760473L681.32953125,153.2454947045784L684.4406250000001,145.82861970730667L687.55171875,140.5763266972783L690.6628125000001,147.98557882857813L693.77390625,149.25576001019772L696.8850000000001,144.9427504873961L699.99609375,148.71911360840141L703.1071874999999,150.02873858225428L706.21828125,141.05060668237257L709.3293749999999,144.29712986616642L712.44046875,145.45295173924177L715.5515624999999,135.97242514491683L718.66265625,130.95732090592745L721.77375,122.29195145201898L724.8848437500001,123.36250264306196L727.9959375,125.53179740225865L731.10703125,129.30712036678548L734.218125,120.51898813479754L737.32921875,125.33372321268092L740.4403125,120.83264144981007L743.55140625,118.31450145676197L746.6625,115.77987688323536L749.77359375,114.74777341807292L752.8846874999999,135.90406737878567L755.99578125,127.24990092608122L759.106875,122.91813735301966L762.2179687500001,126.06905403218072L765.3290625,124.54117015887142L768.4401562500001,127.72315030031703L771.55125,120.77596130808175L774.6623437500001,124.72236675524701L777.7734375,124.19485494198794L780.8845312499999,111.83923020781513L783.995625,106.94865106833838L787.1067187499999,104.72749561842002L790.2178125,103.26361693606208L793.3289062499999,110.87704416314024L796.44,106.34152498364007L799.55109375,103.81109072279665L802.6621875000001,94.58793652958708L805.77328125,89.86422067229171L808.884375,95.96173580494062L811.99546875,93.41069417003712L815.1065625,97.8977809000249L818.21765625,97.99050343324157L821.32875,92.9941817777718L824.43984375,100.6238363419393L827.5509375,110.0638395449173L830.6620312499999,103.33592988852571L833.773125,100.38619388225025L836.88421875,97.01653741051165L839.9953125000001,93.27757636457328L843.10640625,88.58936924785161L846.2175000000001,90.79160172372926L849.32859375,106.28022870200792L852.4396875000001,104.16619735227775L855.55078125,94.53098955909465L858.6618749999999,88.595615286589L861.77296875,81.63870643315335L864.8840624999999,78.82495249949467L867.99515625,77.43728955771073L871.1062499999999,76.17042718044247L874.21734375,76.14321330613691L877.3284375,73.15586571351767L880.4395312500001,76.76873657975244L883.550625,93.47022083922415L886.66171875,91.22284397795315L889.7728125,84.10883920976232L892.88390625,80.03162818901964L895.995,77.07772773357169L899.10609375,68.15515779168568L902.2171875,66.4971884412239L905.32828125,63.85011779801069L908.4393749999999,64.35810954294213L911.55046875,68.20225016427999L914.6615625,63.86785841079332L917.7726562500001,56.908910489629356L920.88375,60.91810928377546L923.9948437500001,62.762025562483295L927.1059375,63.07934833023444L930.2170312500001,53.97304213317334L933.328125,57.145222427082665L936.4392187499999,61.67616677381552L939.5503125,64.5492975717661L942.6614062499999,64.28211495911343L945.7725,70.38268874666248L948.8835937499999,65.06122309315894L951.9946875,62.46335650890288L955.10578125,60.448656019027325L958.2168750000001,65.34045625713784L961.32796875,70.09318466775015L964.4390625,62.98461758966681L967.55015625,57.64067394659182L970.66125,53.196158356221105L973.77234375,52.43340369865392L976.8834375,50.421102647811736L979.99453125,50.43462271978292L983.105625,46.88723706895014L986.2167187499999,43.43024215515792L989.3278125,42.11129387269221L992.43890625,40.56513464480521L995.5500000000001,43.51617693918877L998.66109375,43.97412126074989L1001.7721875000001,45.59031374937749L1004.88328125,44.93413009456664L1007.9943750000001,41.69024940855424L1011.10546875,41.80796773747877L1014.2165624999999,39.75176815698315L1017.32765625,34.8268621236668L1020.4387499999999,37.41370445910609L1023.54984375,40.00287121786782L1026.6609375,40.07883433255021L1029.77203125,37.05760376305858L1032.883125,35.623321179458394L1035.99421875,36.36152384514148L1039.1053124999999,38.80435110231954L1042.21640625,37.66806412399245L1045.3274999999999,37.912589482429205L1048.43859375,37.8672050308958L1051.5496875,38.080907897458985L1054.6607812500001,38.99856109398993L1057.771875,38.34505159245962L1060.8829687500001,37.80872732750792L1063.9940625,38.76309403391012L1067.10515625,40.015127757855225L1070.21625,38.60502899865384L1073.32734375,39.310103542685944L1076.4384375,37.42507598822144L1079.54953125,35.80488482728501L1082.660625,34.31432034739794L1085.77171875,36.05981506209931L1088.8828125,33.576404150136455" style="fill: none;" fill="none"></path></g><g><path stroke="rgb(255, 112, 67)" stroke-width="2px" d="M158.66578125,373.2592825423926L161.77687500000002,373.1336519315373L164.88796875,372.5161248390012L167.9990625,371.53553649171613L171.11015625000002,368.1115782356819L174.22125000000003,367.51084179228155L177.33234374999998,365.2682007311895L180.4434375,359.54044896523385L183.55453125,351.8992066265279L186.665625,352.8733271381486L189.77671875,351.30109009042405L192.8878125,334.1942868645294L195.99890625,325.52721091749663L199.11,320.1074521681144L202.22109375,313.1532874311097L205.3321875,319.31992100537605L208.44328125,307.2338836603591L211.55437500000002,301.0075118684687L214.66546874999997,292.83649567484395L217.77656249999998,283.80355573607403L220.88765625,280.7198513246633L223.99875,277.85215144386575L227.10984374999998,277.18931214096216L230.2209375,276.5645688380649L233.33203125,276.31456022744845L236.443125,264.85605256551884L239.55421875000002,267.75816219523483L242.6653125,263.4345575930057L245.77640625,261.8650812661282L248.88750000000002,265.17398840358163L251.99859375000003,265.6486234589389L255.10968749999998,259.5933464430995L258.22078125,254.81440916267664L261.33187499999997,255.93317356100906L264.44296875,255.00159718814166L267.5540625,249.60586000016627L270.66515625,254.50516713630063L273.77625,249.67056630825454L276.88734375,249.81564887064502L279.9984375,247.31576162062382L283.10953125000003,244.9812626431475L286.220625,242.7884262783757L289.33171875,243.00957572367804L292.4428125,240.2629635562133L295.55390625,240.45916024625143L298.66499999999996,239.62830301386805L301.77609375,236.5830659046386L304.8871875,240.39109437322907L307.99828125,235.75998639253277L311.109375,235.24703614227056L314.22046875,231.26962036078476L317.3315625,241.49520341271338L320.44265625,233.55940097398667L323.55375000000004,228.50452529088392L326.66484375,230.05242460188805L329.7759375,231.43969742785467L332.88703125,219.36114697653124L335.998125,216.08964028953312L339.10921875,216.17719708084346L342.22031250000003,212.61350796341452L345.33140625000004,214.00589437317586L348.44250000000005,211.65273870844675L351.55359374999995,212.57011668574233L354.66468749999996,207.1397919815267L357.77578124999997,207.62425091037062L360.886875,208.73091840844697L363.99796875,205.84547488749828L367.1090625,207.80557033336646L370.22015625,208.6355165297776L373.33125,204.89292365640333L376.44234374999996,200.20195319849213L379.5534375,195.2667108690617L382.66453125,192.3382292458938L385.775625,201.55087434467833L388.88671875,199.1217717720101L391.9978125,195.56224713283956L395.10890625,194.36292834018573L398.22,197.15812638363187L401.33109375000004,192.14829913950527L404.4421875,189.4915384541545L407.55328125,188.69716926161016L410.664375,187.39151346530653L413.77546875,189.88231732753596L416.8865625,186.33180147592833L419.99765625000003,185.69026438107852L423.10875000000004,185.31726071662166L426.21984375000005,184.07927258864916L429.33093749999995,181.9603586677067L432.44203124999996,180.41099071999508L435.55312499999997,181.730226781965L438.66421875,178.29502746284052L441.7753125,178.23310344707994L444.88640625,179.76807969386596L447.9975,177.26484304413327L451.10859375,174.24329849329672L454.21968749999996,172.32213368563103L457.33078125,171.7382554682985L460.441875,172.74856260257334L463.55296875,172.68948089383468L466.6640625,171.85427274288193L469.77515625,171.44744495142373L472.88625,169.23035382979435L475.99734375,169.01476619096593L479.10843750000004,167.7049246636152L482.21953125,167.3433611874056L485.330625,167.80766144301128L488.44171875,163.09705228153248L491.5528125,164.26226474370586L494.66390625,160.99748948529975L497.77500000000003,159.1770004470087L500.88609375000004,159.6496559643112L503.99718750000005,159.43580533643734L507.10828124999995,158.76766181933982L510.21937499999996,158.2924148377663L513.33046875,156.94207166057146L516.4415625,156.21878339303328L519.5526562499999,155.80081873805995L522.6637499999999,155.345823941658L525.77484375,156.90960260512236L528.8859375,158.51848387886173L531.99703125,157.04109442334823L535.108125,157.4762672668782L538.21921875,155.17439721143768L541.3303125,154.72945994208172L544.44140625,154.9856932286615L547.5525,154.66443324829308L550.66359375,154.03926425424316L553.7746875,152.3460618093437L556.88578125,152.47254551856676L559.996875,152.36365261917683L563.10796875,152.6680808737598L566.2190625000001,152.8494794532491L569.3301562500001,150.8454110243817L572.44125,150.84214575403334L575.55234375,149.64199952669975L578.6634375,150.9234083914044L581.77453125,150.177307130294L584.885625,150.11188623988446L587.99671875,149.9102226596106L591.1078125,149.24402530795507L594.21890625,148.73181731585368L597.3299999999999,147.67139207770646L600.4410937499999,147.86169042259587L603.5521875,148.90634657186348L606.66328125,148.67827337528516L609.774375,148.9101957413271L612.88546875,148.86693896846265L615.9965625,148.79678903815918L619.10765625,147.79834439037904L622.21875,147.50429829167524" style="fill: none;" fill="none"></path></g></g></g></g><g opacity="0.2"><g><g><g><path stroke="rgb(51, 187, 238)" stroke-width="2px" d="M158.66578125,375.49469872470945L161.77687500000002,375.49469872470945L164.88796875,375.49469872470945L167.9990625,375.3988648583181L171.11015625000002,374.68281483557075L174.22125000000003,371.26076565962285L177.33234374999998,367.95946449041367L180.4434375,363.27619947865605L183.55453125,359.4809443205595L186.665625,365.3710581064224L189.77671875,360.87493538856506L192.8878125,351.8483599573374L195.99890625,346.0325941219926L199.11,341.30991646647453L202.22109375,353.67663164809346L205.3321875,338.8651444017887L208.44328125,329.07613521814346L211.55437500000002,329.7411630153656L214.66546874999997,322.1791879981756L217.77656249999998,324.34134291112423L220.88765625,309.07830330729485L223.99875,314.3951943665743L227.10984374999998,312.28095875680447L230.2209375,294.35736978054047L233.33203125,302.7564944624901L236.443125,286.60165022313595L239.55421875000002,303.01542161405087L242.6653125,299.09399347007275L245.77640625,292.1501100510359L248.88750000000002,283.1604319214821L251.99859375000003,276.5227938592434L255.10968749999998,305.70752020180225L258.22078125,273.67781415581703L261.33187499999997,265.14623445272446L264.44296875,285.05689592659473L267.5540625,260.1208421885967L270.66515625,262.05486077070236L273.77625,279.5932246148586L276.88734375,266.0104222893715L279.9984375,263.6270408630371L283.10953125000003,262.83401852846146L286.220625,265.9092693030834L289.33171875,259.2211277782917L292.4428125,229.7798674404621L295.55390625,246.44604378938675L298.66499999999996,272.8400970995426L301.77609375,280.4128300845623L304.8871875,246.89508080482483L307.99828125,244.04850566387177L311.109375,237.89137518405914L314.22046875,251.4058096408844L317.3315625,259.2107461988926L320.44265625,228.6898353099823L323.55375000000004,239.52231681346893L326.66484375,224.7656432390213L329.7759375,216.80440998077393L332.88703125,248.9859690964222L335.998125,237.770335406065L339.10921875,241.14844965934753L342.22031250000003,217.85130912065506L345.33140625000004,239.80224868655205L348.44250000000005,226.3787654042244L351.55359374999995,240.66940268874168L354.66468749999996,241.12528210878372L357.77578124999997,213.8234248459339L360.886875,229.4854755103588L363.99796875,228.3411985039711L367.1090625,209.63758102059364L370.22015625,201.21892908215523L373.33125,227.58563524484634L376.44234374999996,226.1255851984024L379.5534375,219.23032891750336L382.66453125,226.97642529010773L385.775625,215.77979078888893L388.88671875,200.12671726942062L391.9978125,202.4659769833088L395.10890625,199.49737334251404L398.22,219.4743746817112L401.33109375000004,213.92269027233124L404.4421875,247.34546607732773L407.55328125,198.68865504860878L410.664375,245.11086481809616L413.77546875,220.58706876635551L416.8865625,220.41580641269684L419.99765625000003,207.90235170722008L423.10875000000004,225.66351503133774L426.21984375000005,212.74874037504196L429.33093749999995,217.78681749105453L432.44203124999996,216.47633409500122L435.55312499999997,203.25214567780495L438.66421875,212.43760758638382L441.7753125,209.4997329711914L444.88640625,197.22018963098526L447.9975,199.49928337335587L451.10859375,205.95496290922165L454.21968749999996,183.04510921239853L457.33078125,200.55564278364182L460.441875,188.71501329541206L463.55296875,177.30825293064117L466.6640625,207.63885733485222L469.77515625,197.0900041759014L472.88625,220.3178555369377L475.99734375,201.6554273068905L479.10843750000004,204.9497473835945L482.21953125,186.53806126117706L485.330625,209.94690489768982L488.44171875,194.86177343130112L491.5528125,189.00379872322083L494.66390625,181.38933718204498L497.77500000000003,182.5801402926445L500.88609375000004,180.0684272646904L503.99718750000005,203.91226357221603L507.10828124999995,179.85812163352966L510.21937499999996,216.043622225523L513.33046875,174.69220727682114L516.4415625,205.3943688571453L519.5526562499999,178.16767692565918L522.6637499999999,211.13796642422676L525.77484375,175.7446792125702L528.8859375,184.81258434057236L531.99703125,210.75827476382256L535.108125,187.01493978500366L538.21921875,173.62142151594162L541.3303125,164.7286325097084L544.44140625,177.84616255760193L547.5525,170.85412389039993L550.66359375,174.76231664419174L553.7746875,179.00692200660706L556.88578125,203.23762944340706L559.996875,182.7709636092186L563.10796875,168.5788277387619L566.2190625000001,206.94620150327682L569.3301562500001,189.4533076286316L572.44125,185.26699191331863L575.55234375,179.03880828619003L578.6634375,205.9705015718937L581.77453125,153.1919788122177L584.885625,183.06492859125137L587.99671875,185.54237341880798L591.1078125,153.09751093387604L594.21890625,189.27606800198555L597.3299999999999,170.79650837183L600.4410937499999,181.34556376934052L603.5521875,178.23455047607422L606.66328125,171.9130899310112L609.774375,153.86959034204483L612.88546875,173.00463885068893L615.9965625,167.5349846482277L619.10765625,158.0500636100769L622.21875,160.26844084262848L625.3298437499999,146.6899641752243L628.4409375,148.61853355169296L631.5520312499999,166.3146771788597L634.663125,160.60512310266495L637.7742187499999,163.2436397075653L640.8853125,149.25828152894974L643.99640625,150.1289409995079L647.1075000000001,165.7587907910347L650.21859375,158.8524113893509L653.3296875,157.6629340648651L656.44078125,150.91295248270035L659.551875,163.41248643398285L662.66296875,128.18873131275177L665.7740625,132.19525694847107L668.88515625,146.14567279815674L671.99625,144.01126950979233L675.1073437499999,141.5441163778305L678.2184375,168.78171795606613L681.32953125,153.4846629500389L684.4406250000001,134.70330721139908L687.55171875,132.69788718223572L690.6628125000001,159.09945702552795L693.77390625,151.1610317826271L696.8850000000001,138.47323620319366L699.99609375,154.38365828990936L703.1071874999999,151.9931760430336L706.21828125,127.58340883255005L709.3293749999999,149.16691464185715L712.44046875,147.18668454885483L715.5515624999999,121.75163525342941L718.66265625,123.43466454744339L721.77375,109.29389727115631L724.8848437500001,124.96832942962646L727.9959375,128.78573954105377L731.10703125,134.97010481357574L734.218125,107.33678978681564L737.32921875,132.55582582950592L740.4403125,114.08101880550385L743.55140625,114.53729146718979L746.6625,111.9779400229454L749.77359375,113.19961822032928L752.8846874999999,167.63850831985474L755.99578125,114.26865124702454L759.106875,116.42049199342728L762.2179687500001,130.7954290509224L765.3290625,122.24934434890747L768.4401562500001,132.4961205124855L771.55125,110.35517781972885L774.6623437500001,130.64197492599487L777.7734375,123.4035872220993L780.8845312499999,93.30579310655594L783.995625,99.61278235912323L787.1067187499999,101.39576244354248L790.2178125,101.06779891252518L793.3289062499999,122.29718500375748L796.44,99.5382462143898L799.55109375,100.01543933153152L802.6621875000001,80.7532052397728L805.77328125,82.77864688634872L808.884375,105.10800850391388L811.99546875,89.58413171768188L815.1065625,104.62841099500656L818.21765625,98.12958723306656L821.32875,85.49969929456711L824.43984375,112.06831818819046L827.5509375,124.22384434938431L830.6620312499999,93.2440654039383L833.773125,95.96158987283707L836.88421875,91.96205270290375L839.9953125000001,87.66913479566574L843.10640625,81.55705857276917L846.2175000000001,94.09495043754578L849.32859375,129.51316916942596L852.4396875000001,100.9951503276825L855.55078125,80.07817786931992L858.6618749999999,79.6925538778305L861.77296875,71.20334315299988L864.8840624999999,74.60432159900665L867.99515625,75.35579514503479L871.1062499999999,74.2701336145401L874.21734375,76.1023924946785L877.3284375,68.67484432458878L880.4395312500001,82.18804287910461L883.550625,118.5224472284317L886.66171875,87.8517786860466L889.7728125,73.43783205747604L892.88390625,73.91581165790558L895.995,72.64687705039978L899.10609375,54.77130287885666L902.2171875,64.01023441553116L905.32828125,59.87951183319092L908.4393749999999,65.12009716033936L911.55046875,73.96846109628677L914.6615625,57.366270780563354L917.7726562500001,46.47048860788345L920.88375,66.93190747499466L923.9948437500001,65.52789998054504L927.1059375,63.555332481861115L930.2170312500001,40.313582837581635L933.328125,61.903492867946625L936.4392187499999,68.4725832939148L939.5503125,68.85899376869202L942.6614062499999,63.88134104013443L945.7725,79.53354942798615L948.8835937499999,57.079024612903595L951.9946875,58.56655663251877L955.10578125,57.42660528421402L958.2168750000001,72.67815661430359L961.32796875,77.22227728366852L964.4390625,52.32176697254181L967.55015625,49.62475848197937L970.66125,46.52938497066498L973.77234375,51.28927171230316L976.8834375,47.40265107154846L979.99453125,50.454902827739716L983.105625,41.56615859270096L986.2167187499999,38.244749784469604L989.3278125,40.13287144899368L992.43890625,38.2458958029747L995.5500000000001,47.94274038076401L998.66109375,44.66103774309158L1001.7721875000001,48.01460248231888L1004.88328125,43.949854612350464L1007.9943750000001,36.824428379535675L1011.10546875,41.98454523086548L1014.2165624999999,36.667468786239624L1017.32765625,27.439503073692322L1020.4387499999999,41.293967962265015L1023.54984375,43.88662135601044L1026.6609375,40.19277900457382L1029.77203125,32.525757908821106L1032.883125,33.471897304058075L1035.99421875,37.46882784366608L1039.1053124999999,42.4685919880867L1042.21640625,35.96363365650177L1045.3274999999999,38.27937752008438L1048.43859375,37.799128353595734L1051.5496875,38.40146219730377L1054.6607812500001,40.375040888786316L1057.771875,37.364787340164185L1060.8829687500001,37.004240930080414L1063.9940625,40.19464409351349L1067.10515625,41.89317834377289L1070.21625,36.48988085985184L1073.32734375,40.36771535873413L1076.4384375,34.59753465652466L1079.54953125,33.37459808588028L1082.660625,32.07847362756729L1085.77171875,38.67805713415146L1088.8828125,29.85128778219223" style="fill: none;" fill="none"></path></g><g><path stroke="rgb(255, 112, 67)" stroke-width="2px" d="M158.66578125,373.2592825423926L161.77687500000002,373.05827356502414L164.88796875,371.92329883016646L167.9990625,370.3823645953089L171.11015625000002,363.64125833660364L174.22125000000003,366.6798070259392L177.33234374999998,362.0611881315708L180.4434375,351.1893319040537L183.55453125,340.62985841184855L186.665625,354.31978257000446L189.77671875,348.95699459314346L192.8878125,308.6271764934063L195.99890625,312.5548965036869L199.11,311.98843191564083L202.22109375,302.73021468520164L205.3321875,328.56552217900753L208.44328125,289.10994204878807L211.55437500000002,291.66953505575657L214.66546874999997,280.5812161564827L217.77656249999998,270.2549714744091L220.88765625,276.09446382522583L223.99875,273.55069598555565L227.10984374999998,276.19506627321243L230.2209375,275.62746128439903L233.33203125,275.9395490884781L236.443125,247.66833993792534L239.55421875000002,272.1113192141056L242.6653125,256.94915732741356L245.77640625,259.5108682215214L248.88750000000002,270.13734728097916L251.99859375000003,266.3605758845806L255.10968749999998,250.51043212413788L258.22078125,247.6460038125515L261.33187499999997,257.61132007837296L264.44296875,253.60423266887665L267.5540625,241.51225435733795L270.66515625,261.85412776470184L273.77625,242.4186651110649L276.88734375,250.03327271342278L279.9984375,243.5659307539463L283.10953125000003,241.47951418161392L286.220625,239.4991717338562L289.33171875,243.34129989147186L292.4428125,236.14304530620575L295.55390625,240.75345528125763L298.66499999999996,238.38201716542244L301.77609375,232.01521024107933L304.8871875,246.10313707590103L307.99828125,228.8133244216442L311.109375,234.47761076688766L314.22046875,225.30349668860435L317.3315625,256.8335779905319L320.44265625,221.65569731593132L323.55375000000004,220.92221176624298L326.66484375,232.3742735683918L329.7759375,233.52060666680336L332.88703125,201.24332129955292L335.998125,211.18238025903702L339.10921875,216.3085322678089L342.22031250000003,207.2679742872715L345.33140625000004,216.09447398781776L348.44250000000005,208.1230052113533L351.55359374999995,213.94618365168571L354.66468749999996,198.99430492520332L357.77578124999997,208.35093930363655L360.886875,210.39091965556145L363.99796875,201.5173096060753L367.1090625,210.74571350216866L370.22015625,209.88043582439423L373.33125,199.2790343463421L376.44234374999996,193.1654975116253L379.5534375,187.86384737491608L382.66453125,187.94550681114197L385.775625,215.36984199285507L388.88671875,195.47811791300774L391.9978125,190.2229601740837L395.10890625,192.56395015120506L398.22,201.35092344880104L401.33109375000004,184.63355827331543L404.4421875,185.5063974261284L407.55328125,187.50561547279358L410.664375,185.43302977085114L413.77546875,193.61852312088013L416.8865625,181.00602769851685L419.99765625000003,184.72795873880386L423.10875000000004,184.75775521993637L426.21984375000005,182.22229039669037L429.33093749999995,178.78198778629303L432.44203124999996,178.08693879842758L435.55312499999997,183.7090808749199L438.66421875,173.14222848415375L441.7753125,178.14021742343903L444.88640625,182.07054406404495L447.9975,173.5099880695343L451.10859375,169.71098166704178L454.21968749999996,169.44038647413254L457.33078125,170.86243814229965L460.441875,174.2640233039856L463.55296875,172.60085833072662L466.6640625,170.6014605164528L469.77515625,170.83720326423645L472.88625,165.9047171473503L475.99734375,168.69138473272324L479.10843750000004,165.7401623725891L482.21953125,166.80101597309113L485.330625,168.50411182641983L488.44171875,156.03113853931427L491.5528125,166.01008343696594L494.66390625,156.10032659769058L497.77500000000003,156.44626688957214L500.88609375000004,160.3586392402649L503.99718750000005,159.11502939462662L507.10828124999995,157.76544654369354L510.21937499999996,157.57954436540604L513.33046875,154.9165568947792L516.4415625,155.13385099172592L519.5526562499999,155.17387175559998L522.6637499999999,154.66333174705505L525.77484375,159.2552706003189L528.8859375,160.93180578947067L531.99703125,154.82501024007797L535.108125,158.12902653217316L538.21921875,151.72159212827682L541.3303125,154.0620540380478L544.44140625,155.3700431585312L547.5525,154.18254327774048L550.66359375,153.10151076316833L553.7746875,149.80625814199448L556.88578125,152.66227108240128L559.996875,152.200313270092L563.10796875,153.1247232556343L566.2190625000001,153.12157732248306L569.3301562500001,147.83930838108063L572.44125,150.83724784851074L575.55234375,147.84178018569946L578.6634375,152.8455216884613L581.77453125,149.0581552386284L584.885625,150.01375490427017L587.99671875,149.60772728919983L591.1078125,148.2447292804718L594.21890625,147.96350532770157L597.3299999999999,146.0807542204857L600.4410937499999,148.14713793992996L603.5521875,150.47333079576492L606.66328125,148.33616358041763L609.774375,149.25807929039001L612.88546875,148.80205380916595L615.9965625,148.691564142704L619.10765625,146.3006774187088L622.21875,147.06322914361954" style="fill: none;" fill="none"></path></g></g></g></g></g></g><g transform="translate(51, 377)" clip-path="url(#clip_1)"><clipPath id="clip_1"><rect width="1244" height="23"></rect></clipPath><g><g><line x1="0" y1="0" x2="0" y2="5" style="visibility: inherit;" fill="rgb(0, 0, 0)" stroke="rgb(204, 204, 204)" stroke-width="1px"></line><line x1="155.5546875" y1="0" x2="155.5546875" y2="5" style="visibility: inherit;" fill="rgb(0, 0, 0)" stroke="rgb(204, 204, 204)" stroke-width="1px"></line><line x1="311.109375" y1="0" x2="311.109375" y2="5" style="visibility: inherit;" fill="rgb(0, 0, 0)" stroke="rgb(204, 204, 204)" stroke-width="1px"></line><line x1="466.6640625" y1="0" x2="466.6640625" y2="5" style="visibility: inherit;" fill="rgb(0, 0, 0)" stroke="rgb(204, 204, 204)" stroke-width="1px"></line><line x1="622.21875" y1="0" x2="622.21875" y2="5" style="visibility: inherit;" fill="rgb(0, 0, 0)" stroke="rgb(204, 204, 204)" stroke-width="1px"></line><line x1="777.7734375" y1="0" x2="777.7734375" y2="5" style="visibility: inherit;" fill="rgb(0, 0, 0)" stroke="rgb(204, 204, 204)" stroke-width="1px"></line><line x1="933.328125" y1="0" x2="933.328125" y2="5" style="visibility: inherit;" fill="rgb(0, 0, 0)" stroke="rgb(204, 204, 204)" stroke-width="1px"></line><line x1="1088.8828125" y1="0" x2="1088.8828125" y2="5" style="visibility: inherit;" fill="rgb(0, 0, 0)" stroke="rgb(204, 204, 204)" stroke-width="1px"></line><line x1="1244.4375" y1="0" x2="1244.4375" y2="5" style="visibility: inherit;" fill="rgb(0, 0, 0)" stroke="rgb(204, 204, 204)" stroke-width="1px"></line></g><g transform="translate(0, 8)"><text x="0" y="0" dx="0em" dy="0.95em" style="text-anchor: middle; visibility: hidden; font-family: Roboto, sans-serif; font-size: 12px; font-weight: 200;" fill="rgb(255, 255, 255)" stroke="none" stroke-width="1px">-50</text><text x="155.5546875" y="0" dx="0em" dy="0.95em" style="text-anchor: middle; visibility: inherit; font-family: Roboto, sans-serif; font-size: 12px; font-weight: 200;" fill="rgb(255, 255, 255)" stroke="none" stroke-width="1px">0</text><text x="311.109375" y="0" dx="0em" dy="0.95em" style="text-anchor: middle; visibility: inherit; font-family: Roboto, sans-serif; font-size: 12px; font-weight: 200;" fill="rgb(255, 255, 255)" stroke="none" stroke-width="1px">50</text><text x="466.6640625" y="0" dx="0em" dy="0.95em" style="text-anchor: middle; visibility: inherit; font-family: Roboto, sans-serif; font-size: 12px; font-weight: 200;" fill="rgb(255, 255, 255)" stroke="none" stroke-width="1px">100</text><text x="622.21875" y="0" dx="0em" dy="0.95em" style="text-anchor: middle; visibility: inherit; font-family: Roboto, sans-serif; font-size: 12px; font-weight: 200;" fill="rgb(255, 255, 255)" stroke="none" stroke-width="1px">150</text><text x="777.7734375" y="0" dx="0em" dy="0.95em" style="text-anchor: middle; visibility: inherit; font-family: Roboto, sans-serif; font-size: 12px; font-weight: 200;" fill="rgb(255, 255, 255)" stroke="none" stroke-width="1px">200</text><text x="933.328125" y="0" dx="0em" dy="0.95em" style="text-anchor: middle; visibility: inherit; font-family: Roboto, sans-serif; font-size: 12px; font-weight: 200;" fill="rgb(255, 255, 255)" stroke="none" stroke-width="1px">250</text><text x="1088.8828125" y="0" dx="0em" dy="0.95em" style="text-anchor: middle; visibility: inherit; font-family: Roboto, sans-serif; font-size: 12px; font-weight: 200;" fill="rgb(255, 255, 255)" stroke="none" stroke-width="1px">300</text><text x="1244.4375" y="0" dx="0em" dy="0.95em" style="text-anchor: middle; visibility: hidden; font-family: Roboto, sans-serif; font-size: 12px; font-weight: 200;" fill="rgb(255, 255, 255)" stroke="none" stroke-width="1px">350</text></g><line x1="0" y1="0" x2="1244.4375" y2="0" fill="rgb(0, 0, 0)" stroke="rgb(204, 204, 204)" stroke-width="1px"></line></g></g></g></g></svg>